<svg width="104" height="71" viewBox="0 0 104 71" fill="none" xmlns="http://www.w3.org/2000/svg">
<g filter="url(#filter0_d_1302_1000)">
<path d="M29.2355 18.8824C31.0715 19.8597 31.8528 21.2476 31.8137 23.1632C31.7551 25.372 31.7746 27.6004 31.7746 29.8092C31.7746 30.3565 31.716 30.591 31.0324 30.591C23.747 30.5715 16.4615 30.5715 9.17607 30.6106C8.43385 30.6106 8.25806 30.4542 8.25806 29.6919C8.27759 25.0006 8.25806 20.3093 8.19946 15.618C8.19946 14.8948 8.39478 14.6798 9.09794 14.8166C10.5628 15.1294 11.559 15.9503 12.2035 17.3968C12.3793 17.1232 12.516 16.8886 12.6528 16.654C13.4145 15.3444 14.5278 14.6211 16.0709 14.6211C21.0906 14.6211 26.0908 14.6016 31.1106 14.5625C31.7356 14.5625 31.9504 14.7384 31.8528 15.3444C31.8137 15.5594 31.8723 15.794 31.8723 16.0285C31.8528 18.0223 31.3449 18.5892 29.2355 18.8824ZM12.4574 28.6559C13.2778 27.3072 14.2739 26.3689 15.6998 26.3493C19.3718 26.3103 23.0438 26.3493 26.7158 26.408C27.4776 26.4275 27.6729 26.2125 27.6534 25.4893C27.6143 23.5346 27.6339 21.5799 27.6729 19.6252C27.6924 18.941 27.4776 18.7456 26.794 18.7456C22.3993 18.7847 18.0241 18.7651 13.6294 18.7651C13.2583 18.7651 12.8676 18.8042 12.4574 18.8237C12.4574 22.1272 12.4574 25.2743 12.4574 28.6559Z" fill="#55A965"/>
<path d="M74.3741 20.8176C74.4132 20.583 74.5109 20.4462 74.5695 20.3876C76.8742 17.4751 79.472 15.3054 83.3979 15.2663C86.777 15.2272 89.0818 16.9864 90.6834 19.8207C93.4765 24.7857 92.5585 29.692 90.2146 34.481C88.7302 37.4912 86.484 39.8759 83.3394 41.2051C79.9994 42.6125 76.7766 42.2998 74.1202 39.7196C72.2256 37.8821 71.3272 35.4583 71.0537 32.839C70.956 31.8617 70.956 30.8843 70.9951 29.9461C71.3662 31.3534 71.5811 32.839 72.128 34.1878C73.8273 38.2144 78.261 39.5045 82.0307 37.1394C85.273 35.0869 87.0309 32.018 87.6559 28.3041C88.0075 26.193 88.0856 24.0624 87.2458 22.01C85.2535 17.221 80.1752 15.9504 76.1711 19.2539C75.5851 19.7034 75.0382 20.2117 74.3741 20.8176Z" fill="#55A965"/>
<path d="M87.2457 48.3006C82.3822 53.0505 77.4796 57.82 72.5771 62.5895C70.8778 61.1821 70.8387 58.5823 72.499 56.9209C76.3663 53.0701 80.2727 49.278 84.1791 45.4468C86.0933 43.5507 88.0269 41.6742 89.9215 39.7586C90.488 39.1722 90.8982 39.1135 91.5232 39.7586C93.1639 41.4396 93.2029 42.4756 91.5427 44.098C90.4489 45.1535 89.3747 46.2286 88.3004 47.3819C91.0739 46.7369 93.0467 47.9683 94.8241 49.8644C96.1523 51.2913 97.5586 52.64 98.9649 54.0083C99.4923 54.5166 99.6094 54.9466 98.9844 55.4548C98.75 55.6307 98.5742 55.8653 98.3594 56.0803C97.3242 57.0772 96.1132 57.0968 95.078 56.0803C92.4607 53.5001 89.863 50.9199 87.2457 48.3006Z" fill="#55A965"/>
<path d="M42.4196 39.7781C43.3181 37.8821 44.783 37.1784 46.7167 37.1979C50.1738 37.237 53.6115 37.2175 57.0686 37.1784C57.7718 37.1784 58.0062 37.4129 57.9281 38.0775C57.8695 38.5857 57.9281 39.1135 57.8304 39.6217C57.6155 40.6577 56.8929 41.2441 55.8381 41.2441C51.3262 41.2637 46.7948 41.2637 42.2829 41.2441C40.0562 41.2246 38.4155 39.5826 38.396 37.3347C38.3374 30.0828 38.2983 22.8113 38.2397 15.5594C38.2397 14.9339 38.4155 14.7384 39.0601 14.7189C42.1071 14.6602 42.4587 15.3444 42.4391 18.0614C42.4001 25.2547 42.4196 32.448 42.4196 39.7781Z" fill="#55A965"/>
<path d="M59.6079 14.8361C60.9752 14.4256 62.7916 16.0871 63.2018 17.3186C63.4948 18.1982 63.7096 19.1365 63.7487 20.0552C63.8268 22.1272 63.7682 24.2187 63.7682 26.4275C65.3894 26.4275 66.9324 26.4275 68.4559 26.4275C68.7489 29.4964 68.9637 31.0406 63.7487 30.6497C63.7487 31.0992 63.7487 31.5488 63.7487 31.9789C63.7292 37.7843 63.7096 43.5702 63.6706 49.3757C63.6706 49.5907 63.3776 50.0012 63.2018 50.0012C62.4596 50.0207 61.6978 50.0012 60.9752 49.8448C60.0962 49.6493 59.686 48.8675 59.6665 47.7142C59.647 39.9931 59.6274 32.2721 59.6079 24.551C59.5884 21.5212 59.5688 18.4914 59.5493 15.4616C59.5493 15.2466 59.5884 15.0316 59.6079 14.8361Z" fill="#55A965"/>
<path d="M22.028 43.1011C21.8327 43.1793 21.7936 43.1989 21.7741 43.1989C18.5513 43.453 17.8872 42.8275 18.0044 39.6022C18.0435 38.6053 18.0044 37.5889 18.0044 36.3965C16.813 36.3965 15.6606 36.3965 14.5082 36.3965C12.4573 36.3965 10.4065 36.4356 8.35559 36.4161C6.48052 36.3965 5.05468 35.3019 4.52731 33.5231C4.23433 32.5262 4.41012 32.2916 5.40625 32.2916C10.0939 32.2916 14.7816 32.2916 19.4693 32.2916C24.5477 32.2916 29.6065 32.3112 34.6848 32.2721C35.4661 32.2721 35.7786 32.4676 35.6614 33.2494C35.6223 33.5622 35.6614 33.8945 35.6419 34.2268C35.5833 35.5951 34.7824 36.3965 33.4152 36.3965C30.0362 36.3965 26.6571 36.3965 23.2585 36.3965C22.8679 36.3965 22.4968 36.3965 22.0085 36.3965C22.028 38.7031 22.028 40.9119 22.028 43.1011Z" fill="#55A965"/>
<path d="M8.35574 39.2308C10.1918 39.2504 11.0902 40.4037 11.7348 41.7329C12.1059 42.4952 12.2231 43.4139 12.2817 44.2544C12.3598 45.6618 12.3012 47.0887 12.3989 48.5157C13.2583 46.7369 14.6646 45.9746 16.5397 45.9746C21.2274 45.9746 25.9151 45.9941 30.6027 45.955C31.4426 45.955 31.8137 46.0918 31.7747 47.0692C31.6965 49.3757 31.091 50.0403 28.8253 50.0403C22.9657 50.0403 17.1061 50.0403 11.266 50.0208C10.641 50.0208 9.91831 49.9621 9.41047 49.6494C8.94171 49.3757 8.4534 48.7307 8.43387 48.2225C8.29715 45.2709 8.35574 42.3193 8.35574 39.2308Z" fill="#55A965"/>
<path d="M93.5544 15.9308C96.035 16.0285 97.6171 18.6283 97.6171 20.4461C97.6366 27.1508 97.5975 33.8554 97.578 40.5405C97.578 41.1073 97.3827 41.3028 96.8358 41.2637C96.6014 41.2442 96.3865 41.2637 96.1522 41.2637C94.238 41.2637 93.4958 40.5405 93.4958 38.6249C93.4763 33.8358 93.4958 29.0664 93.4763 24.2774C93.4763 22.5181 93.3786 20.7589 93.4177 19.0192C93.4567 18.0223 93.4372 16.9863 93.5544 15.9308Z" fill="#55A965"/>
<path d="M50.291 0.234619C47.6932 0.234619 45.5837 2.48253 45.5837 5.2582C45.5837 8.03388 47.6932 10.2818 50.291 10.2818C52.8887 10.2818 54.9982 8.03388 54.9982 5.2582C55.0177 2.48253 52.9082 0.234619 50.291 0.234619ZM50.291 8.11206C48.787 8.11206 47.576 6.82196 47.576 5.21911C47.576 3.6358 48.787 2.32615 50.291 2.32615C51.7949 2.32615 53.0059 3.61625 53.0059 5.21911C53.0059 6.82196 51.7754 8.11206 50.291 8.11206Z" fill="#55A965"/>
<path d="M43.3376 0.469238V9.10901C43.3376 9.10901 44.451 10.2427 44.7049 10.2623C44.9588 10.2818 45.1932 9.77361 45.1932 9.77361V0.918819C45.1932 0.918819 44.9783 0.508332 44.783 0.508332C44.6072 0.508332 43.3376 0.508332 43.3376 0.508332" fill="#55A965"/>
<path d="M25.876 0.410522H27.1651C27.1651 0.410522 27.6534 0.684181 27.6143 0.860104C27.5753 1.03603 27.6143 9.46079 27.6143 9.46079C27.6143 9.46079 28.4151 8.44434 28.63 8.44434C28.8448 8.44434 32.3411 8.44434 32.3411 8.44434V0.410522H33.6497C33.6497 0.410522 34.099 0.664634 34.099 0.860104C34.099 1.05557 34.099 9.55852 34.099 9.55852C34.099 9.55852 33.7083 10.184 33.4739 10.184C33.2396 10.184 27.087 10.184 27.087 10.184C27.087 10.184 25.876 9.77354 25.876 8.97211C25.876 8.17068 25.876 0.410522 25.876 0.410522Z" fill="#55A965"/>
<path d="M9.137 0.410522H16.3639V1.50515C16.3639 1.50515 15.856 2.03292 15.6412 2.01338C15.4263 1.99383 9.44951 2.01338 9.44951 2.01338L8.94168 1.8961L9.35185 2.32613C9.35185 2.32613 9.85969 2.71707 9.89875 3.22529C9.93782 3.73351 9.91828 5.19954 9.91828 5.19954C9.91828 5.19954 10.4847 4.31992 10.9535 4.28083C11.4418 4.24174 15.2115 4.28083 15.2115 4.28083C15.2115 4.28083 16.0904 4.63268 16.0904 5.12135C16.0904 5.62957 16.0904 9.89082 16.0904 9.89082C16.0904 9.89082 16.1099 10.2622 15.7193 10.2622C15.3287 10.2622 9.21513 10.2622 9.21513 10.2622C9.21513 10.2622 8.17993 9.34351 8.17993 9.22622C8.17993 9.10894 8.51198 8.3857 8.51198 8.3857H14.7427V6.00097H9.23466C9.23466 6.00097 8.27759 5.41456 8.27759 5.04316C8.27759 4.67177 8.27759 1.30968 8.27759 1.30968C8.27759 1.30968 8.86355 0.645087 9.137 0.410522Z" fill="#55A965"/>
<path d="M18.161 0.410522H25.212C25.2316 0.410522 25.2511 0.430069 25.2511 0.449616V1.8961C25.2511 1.91564 25.2316 1.93519 25.212 1.93519H22.0674C22.0479 1.93519 22.0283 1.95474 22.0283 1.97428V10.0667C22.0283 10.0863 22.0088 10.1058 21.9893 10.1058H20.8369C20.8369 10.1058 20.8369 10.1058 20.8173 10.1058C20.7783 10.0863 20.5829 10.0081 20.4853 9.77354C20.3876 9.51943 20.4853 2.54115 20.4853 1.99383C20.4853 1.97428 20.4658 1.95474 20.4462 1.95474H16.8914C16.8719 1.95474 16.8523 1.93519 16.8719 1.8961C17.0281 1.62244 17.7508 0.410522 18.161 0.410522Z" fill="#55A965"/>
<path d="M41.1697 0.508332C40.8962 0.508332 36.6187 0.508332 36.6187 0.508332L36.0914 1.0361L35.5445 0.469238H34.7241V9.77361C34.7241 9.77361 34.9194 10.2818 35.232 10.2818C35.5249 10.2818 41.1892 10.2818 41.1892 10.2818C41.1892 10.2818 42.6346 9.12856 42.6346 8.83536C42.6346 8.54215 42.6346 1.93526 42.6346 1.93526C42.6346 1.93526 41.4431 0.508332 41.1697 0.508332ZM41.0525 7.97529C41.0525 8.15121 40.7009 8.40532 40.7009 8.40532H36.6187L36.2281 8.75717L36.3843 8.36623V2.11119C36.3843 2.11119 40.4665 2.09164 40.6619 2.11119C40.8377 2.13073 41.0525 2.50213 41.0525 2.50213C41.0525 2.50213 41.0525 7.79936 41.0525 7.97529Z" fill="#55A965"/>
</g>
<defs>
<filter id="filter0_d_1302_1000" x="0" y="0" width="104" height="71" filterUnits="userSpaceOnUse" color-interpolation-filters="sRGB">
<feFlood flood-opacity="0" result="BackgroundImageFix"/>
<feColorMatrix in="SourceAlpha" type="matrix" values="0 0 0 0 0 0 0 0 0 0 0 0 0 0 0 0 0 0 127 0" result="hardAlpha"/>
<feOffset dy="4"/>
<feGaussianBlur stdDeviation="2"/>
<feComposite in2="hardAlpha" operator="out"/>
<feColorMatrix type="matrix" values="0 0 0 0 0 0 0 0 0 0 0 0 0 0 0 0 0 0 0.25 0"/>
<feBlend mode="normal" in2="BackgroundImageFix" result="effect1_dropShadow_1302_1000"/>
<feBlend mode="normal" in="SourceGraphic" in2="effect1_dropShadow_1302_1000" result="shape"/>
</filter>
</defs>
</svg>
