<svg width="50" height="50" viewBox="0 0 50 50" fill="none" xmlns="http://www.w3.org/2000/svg">
<g clip-path="url(#clip0_1466_1526)">
<path d="M25 49.5051C38.531 49.5051 49.5 38.5349 49.5 25.0026C49.5 11.4702 38.531 0.5 25 0.5C11.469 0.5 0.5 11.4702 0.5 25.0026C0.5 38.5349 11.469 49.5051 25 49.5051Z" fill="white"/>
<path d="M22.6982 13.0524C22.8054 12.7716 22.882 12.6032 22.9381 12.4245C24.648 7.10541 32.3145 7.33001 33.4782 13.032C33.7794 14.497 33.4017 15.472 32.7892 17.5343C32.6922 17.8508 32.7586 18.0244 33.1107 18.1213C34.2184 18.4276 35.0248 19.127 35.5403 20.1428C35.7088 20.4746 35.9129 20.5818 36.2804 20.5767C39.4807 20.5257 41.7521 23.3026 40.7057 27.0648C40.4301 28.0551 40.1392 29.0352 39.8533 30.0204C38.9805 33.0271 37.4748 32.8331 37.2043 33.6294C32.7637 46.8761 12.8829 43.9971 12.643 30.5768C12.6175 29.1424 12.6379 27.708 12.6379 26.2736C12.6379 25.0382 13.0054 23.9203 13.7711 22.9555C14.1794 22.445 14.1233 22.787 12.0612 15.5128C11.1986 12.4756 13.1024 9.32595 16.1955 8.68787C18.8344 8.14677 21.5141 9.66797 22.4379 12.2867C22.5145 12.5113 22.586 12.7206 22.6982 13.0524ZM25.3524 30.1174C25.5668 30.832 26.067 31.0515 25.9649 33.4814C25.9445 34.0021 25.628 34.3083 25.1431 34.3083C24.1274 34.3032 24.3469 33.2364 24.3112 32.5268C24.2499 31.2404 23.4792 30.2961 22.3001 30.0766C21.9939 30.0204 21.6672 30.0561 21.3559 30.0255C20.2993 29.9336 20.2329 28.4941 21.3252 28.3716C21.7387 28.3256 24.403 28.3563 26.3937 28.295C28.8079 28.2184 28.7314 24.4614 26.4396 24.4256C23.617 24.3797 20.7995 24.3644 17.9769 24.395C16.6549 24.4103 16.0322 25.1352 16.022 26.4828C15.9914 30.7504 15.6341 33.8132 18.9314 36.6157C21.805 39.0557 25.1227 39.3824 28.5834 38.239C31.3141 37.3354 33.1261 35.4161 33.9529 32.6187C34.0805 32.195 34.0652 31.904 33.5854 31.7407C32.8657 31.4957 32.8862 30.781 32.2175 31.4089C30.5025 33.0118 27.8484 32.6289 26.6999 30.6381C26.3069 29.9694 26.164 29.9132 25.3524 30.1174ZM15.236 14.0376C15.5218 15.5537 14.9042 12.9809 17.4512 22.1439C17.5635 22.542 17.737 22.6952 18.1709 22.6952C20.8097 22.6747 23.4537 22.6798 26.0976 22.6901C27.3737 22.6952 27.6646 23.2312 27.879 22.4603C30.0585 14.6042 30.2575 14.4715 30.1605 13.7772C29.839 11.4597 26.8735 11.4444 26.1844 13.4301C25.97 14.0478 24.9032 17.8202 24.1376 20.3725C23.8773 21.2403 23.2393 21.6589 22.4379 21.5109C21.7336 21.3833 21.4222 20.8728 21.2385 20.2398C19.3499 13.7262 19.2938 13.4659 19.0386 13.0166C18.5792 12.1999 17.6247 11.8119 16.7468 12.0468C15.8485 12.2918 15.2717 13.0626 15.236 14.0376ZM29.7726 22.1898C29.5582 22.7513 29.4051 23.3384 29.252 23.9203C29.2163 24.0581 29.2622 24.2572 29.3388 24.3848C30.426 26.1255 29.6603 28.3154 28.3281 29.2751C27.5268 29.8519 29.4868 31.4344 30.819 30.3216C31.1099 30.0817 31.3957 29.7447 31.5029 29.3976C32.1307 27.32 32.7432 25.2424 33.2843 23.1444C33.8406 21.0055 30.6097 20.0152 29.7726 22.1898ZM36.3774 23.905C35.6169 23.7671 34.79 24.3031 34.5195 25.1607C34.1928 26.2072 33.8917 27.269 33.6059 28.3256C33.0495 30.4033 36.1426 31.511 36.8878 29.0913C37.1941 28.101 37.4646 27.0954 37.7453 26.1C37.9954 25.222 37.5463 24.1143 36.3774 23.905Z" fill="#55A965"/>
</g>
<defs>
<clipPath id="clip0_1466_1526">
<rect width="49" height="49" fill="white" transform="translate(0.5 0.5)"/>
</clipPath>
</defs>
</svg>
