<svg width="48" height="49" viewBox="0 0 48 49" fill="none" xmlns="http://www.w3.org/2000/svg">
<g clip-path="url(#clip0_1302_997)">
<path d="M48 24.5C48 11.2452 37.2548 0.5 24 0.5C10.7452 0.5 0 11.2452 0 24.5C0 37.7548 10.7452 48.5 24 48.5C37.2548 48.5 48 37.7548 48 24.5Z" fill="#55A965"/>
<path d="M19 24.5C18.9999 23.8434 19.1292 23.1932 19.3804 22.5865C19.6316 21.9799 19.9999 21.4287 20.4641 20.9643C20.9284 20.5 21.4795 20.1316 22.0861 19.8803C22.6927 19.629 23.3429 19.4996 23.9995 19.4995C24.6561 19.4994 25.3063 19.6287 25.913 19.8799C26.5196 20.1311 27.0708 20.4994 27.5352 20.9636C27.9995 21.4279 28.3679 21.979 28.6192 22.5856C28.8705 23.1922 28.9999 23.8424 29 24.499C29.0001 25.8251 28.4735 27.0969 27.5359 28.0347C26.5983 28.9725 25.3266 29.4994 24.0005 29.4995C22.6744 29.4996 21.4026 28.973 20.4648 28.0354C19.527 27.0978 19.0001 25.8261 19 24.5ZM16.298 24.5C16.298 26.5427 17.1095 28.5017 18.5539 29.9461C19.9983 31.3905 21.9573 32.202 24 32.202C26.0427 32.202 28.0017 31.3905 29.4461 29.9461C30.8905 28.5017 31.702 26.5427 31.702 24.5C31.702 22.4573 30.8905 20.4983 29.4461 19.0539C28.0017 17.6095 26.0427 16.798 24 16.798C21.9573 16.798 19.9983 17.6095 18.5539 19.0539C17.1095 20.4983 16.298 22.4573 16.298 24.5ZM30.208 16.492C30.2078 16.848 30.3132 17.1962 30.5109 17.4923C30.7085 17.7884 30.9896 18.0193 31.3185 18.1557C31.6474 18.2921 32.0093 18.3279 32.3586 18.2585C32.7078 18.1892 33.0286 18.0178 33.2804 17.7661C33.5323 17.5145 33.7038 17.1937 33.7733 16.8445C33.8429 16.4953 33.8073 16.1334 33.6711 15.8044C33.5349 15.4754 33.3042 15.1943 33.0081 14.9964C32.7121 14.7986 32.364 14.693 32.008 14.693C31.5306 14.693 31.0728 14.8826 30.7352 15.2202C30.3976 15.5578 30.208 16.0156 30.208 16.493V16.492ZM17.94 36.71C16.478 36.643 15.683 36.4 15.154 36.194C14.5026 35.9532 13.9132 35.5699 13.429 35.072C12.9303 34.5885 12.5468 33.9989 12.307 33.347C12.101 32.819 11.857 32.024 11.791 30.562C11.718 28.981 11.704 28.506 11.704 24.5C11.704 20.494 11.72 20.02 11.791 18.438C11.858 16.976 12.103 16.182 12.307 15.653C12.58 14.953 12.904 14.453 13.429 13.927C13.9124 13.4281 14.502 13.0446 15.154 12.805C15.682 12.6 16.478 12.355 17.94 12.289C19.521 12.217 19.996 12.202 24 12.202C28.004 12.202 28.48 12.218 30.062 12.289C31.524 12.356 32.318 12.601 32.847 12.805C33.547 13.077 34.047 13.403 34.573 13.927C35.098 14.452 35.423 14.952 35.695 15.653C35.901 16.181 36.145 16.976 36.211 18.438C36.283 20.021 36.298 20.494 36.298 24.5C36.298 28.506 36.283 28.98 36.211 30.562C36.144 32.024 35.899 32.819 35.695 33.347C35.422 34.047 35.097 34.547 34.573 35.072C34.0885 35.57 33.4988 35.9533 32.847 36.194C32.319 36.4 31.524 36.644 30.062 36.71C28.481 36.782 28.006 36.797 24 36.797C19.994 36.797 19.52 36.782 17.94 36.71ZM17.816 9.59C16.219 9.664 15.128 9.917 14.175 10.288C13.1741 10.6647 12.2674 11.2551 11.518 12.018C10.7544 12.7668 10.1639 13.6737 9.788 14.675C9.417 15.628 9.164 16.719 9.091 18.315C9.017 19.916 9 20.427 9 24.5C9 28.573 9.017 29.085 9.09 30.684C9.164 32.281 9.417 33.372 9.788 34.325C10.164 35.3262 10.7545 36.2331 11.518 36.982C12.2678 37.7444 13.1744 38.3348 14.175 38.712C15.13 39.083 16.219 39.336 17.815 39.409C19.416 39.482 19.926 39.5 24 39.5C28.073 39.5 28.585 39.483 30.184 39.41C31.781 39.336 32.872 39.083 33.825 38.712C34.8256 38.3347 35.7322 37.7444 36.482 36.982C37.2451 36.2328 37.8356 35.326 38.212 34.325C38.583 33.372 38.838 32.281 38.909 30.685C38.982 29.084 38.999 28.574 38.999 24.5C38.999 20.427 38.982 19.915 38.909 18.316C38.836 16.719 38.583 15.628 38.212 14.675C37.8347 13.6744 37.2444 12.7678 36.482 12.018C35.7332 11.2548 34.8268 10.6643 33.826 10.288C32.872 9.917 31.781 9.662 30.186 9.591C28.585 9.518 28.074 9.5 24 9.5C19.927 9.5 19.415 9.517 17.815 9.59H17.816Z" fill="white"/>
</g>
<defs>
<clipPath id="clip0_1302_997">
<rect width="48" height="48" fill="white" transform="translate(0 0.5)"/>
</clipPath>
</defs>
</svg>
