<svg width="49" height="49" viewBox="0 0 49 49" fill="none" xmlns="http://www.w3.org/2000/svg">
<g clip-path="url(#clip0_1302_1954)">
<path d="M48.5 24.5C48.5 11.2452 37.7548 0.5 24.5 0.5C11.2452 0.5 0.5 11.2452 0.5 24.5C0.5 37.7548 11.2452 48.5 24.5 48.5C37.7548 48.5 48.5 37.7548 48.5 24.5Z" fill="#55A965"/>
<path fill-rule="evenodd" clip-rule="evenodd" d="M36.238 14.64C36.8712 14.8119 37.4483 15.1465 37.9122 15.6105C38.376 16.0745 38.7104 16.6518 38.882 17.285C39.525 19.632 39.5 24.525 39.5 24.525C39.5 24.525 39.5 29.393 38.882 31.741C38.7103 32.3741 38.3759 32.9513 37.9121 33.4151C37.4482 33.8789 36.8711 34.2133 36.238 34.385C33.89 35.003 24.5 35.003 24.5 35.003C24.5 35.003 15.134 35.003 12.762 34.36C12.1289 34.1883 11.5518 33.8539 11.0879 33.3901C10.6241 32.9263 10.2897 32.3491 10.118 31.716C9.5 29.393 9.5 24.5 9.5 24.5C9.5 24.5 9.5 19.632 10.118 17.285C10.2927 16.6506 10.6276 16.0717 11.0907 15.6041C11.5537 15.1365 12.1293 14.7959 12.762 14.615C15.11 13.999 24.5 13.999 24.5 13.999C24.5 13.999 33.89 13.999 36.238 14.642V14.64ZM29.318 24.5L21.51 28.998V20.003L29.319 24.5H29.318Z" fill="white"/>
</g>
<defs>
<clipPath id="clip0_1302_1954">
<rect width="48" height="48" fill="white" transform="translate(0.5 0.5)"/>
</clipPath>
</defs>
</svg>
