<svg width="49" height="49" viewBox="0 0 49 49" fill="none" xmlns="http://www.w3.org/2000/svg">
<g clip-path="url(#clip0_1302_1957)">
<path d="M48.5 24.5C48.5 11.2452 37.7548 0.5 24.5 0.5C11.2452 0.5 0.5 11.2452 0.5 24.5C0.5 37.7548 11.2452 48.5 24.5 48.5C37.7548 48.5 48.5 37.7548 48.5 24.5Z" fill="#55A965"/>
<path d="M35.532 35.11C35.102 35.826 34.185 36.027 33.469 35.597C27.826 32.16 20.75 31.387 12.385 33.277C11.583 33.449 10.781 32.962 10.609 32.16C10.437 31.358 10.924 30.555 11.726 30.384C20.865 28.293 28.714 29.18 35.016 33.048C35.732 33.478 35.961 34.394 35.532 35.11ZM38.454 28.579C37.909 29.467 36.764 29.725 35.875 29.209C29.43 25.227 19.605 24.081 11.985 26.402C10.982 26.688 9.95003 26.144 9.66403 25.17C9.37803 24.167 9.92203 23.136 10.924 22.85C19.633 20.214 30.461 21.475 37.881 26.03C38.711 26.545 38.998 27.69 38.453 28.579H38.454ZM38.711 21.761C30.977 17.178 18.229 16.748 10.839 18.982C10.5569 19.0701 10.26 19.1015 9.96565 19.0742C9.67129 19.0469 9.38527 18.9615 9.12413 18.8229C8.863 18.6843 8.63193 18.4953 8.4443 18.2669C8.25667 18.0385 8.11621 17.7751 8.03103 17.492C7.65903 16.318 8.34603 15.058 9.52103 14.685C18.001 12.107 32.094 12.623 40.974 17.894C41.4828 18.1981 41.85 18.6917 41.9951 19.2664C42.1403 19.841 42.0514 20.4498 41.748 20.959C41.6075 21.2174 41.4157 21.4444 41.1843 21.626C40.953 21.8076 40.6869 21.94 40.4025 22.0151C40.1181 22.0902 39.8214 22.1064 39.5305 22.0627C39.2397 22.019 38.9608 21.9163 38.711 21.761Z" fill="white"/>
</g>
<defs>
<clipPath id="clip0_1302_1957">
<rect width="48" height="48" fill="white" transform="translate(0.5 0.5)"/>
</clipPath>
</defs>
</svg>
