<svg width="50" height="50" viewBox="0 0 50 50" fill="none" xmlns="http://www.w3.org/2000/svg">
<path d="M49 25C49 11.7452 38.2548 1 25 1C11.7452 1 1 11.7452 1 25C1 38.2548 11.7452 49 25 49C38.2548 49 49 38.2548 49 25Z" fill="white"/>
<path fill-rule="evenodd" clip-rule="evenodd" d="M36.738 15.14C37.3712 15.3119 37.9483 15.6465 38.4122 16.1105C38.876 16.5745 39.2104 17.1518 39.382 17.785C40.025 20.132 40 25.025 40 25.025C40 25.025 40 29.893 39.382 32.241C39.2103 32.8741 38.8759 33.4513 38.4121 33.9151C37.9482 34.3789 37.3711 34.7133 36.738 34.885C34.39 35.503 25 35.503 25 35.503C25 35.503 15.634 35.503 13.262 34.86C12.6289 34.6883 12.0518 34.3539 11.5879 33.8901C11.1241 33.4263 10.7897 32.8491 10.618 32.216C10 29.893 10 25 10 25C10 25 10 20.132 10.618 17.785C10.7927 17.1506 11.1276 16.5717 11.5907 16.1041C12.0537 15.6365 12.6293 15.2959 13.262 15.115C15.61 14.499 25 14.499 25 14.499C25 14.499 34.39 14.499 36.738 15.142V15.14ZM29.818 25L22.01 29.498V20.503L29.819 25H29.818Z" fill="#55A965"/>
</svg>
