<?xml version="1.0" encoding="utf-8"?>
<!-- Generator: Adobe Illustrator 25.2.1, SVG Export Plug-In . SVG Version: 6.00 Build 0)  -->
<svg version="1.1" id="Layer_1" xmlns="http://www.w3.org/2000/svg" xmlns:xlink="http://www.w3.org/1999/xlink" x="0px" y="0px"
	 viewBox="0 0 3108.03 548.43" style="enable-background:new 0 0 3108.03 548.43;" xml:space="preserve">
<style type="text/css">
	.st0{fill:#FFFFFF;}
</style>
<g>
	<g>
		<path class="st0" d="M2652.92,369.94c-39.64,70.67-100.55,107.83-180.21,110.81c-79.07,2.95-142.29-29.4-188.77-96.74
			c-13.1,23.32-26.15,45.02-37.66,67.52c-9.4,18.37-22.8,29.51-43.73,29.7c-21.43,0.2-35.56-10.97-45.67-29.41
			c-23.28-42.48-47.51-84.44-70.79-126.92c-6.51-11.89-15.33-17.81-28.72-17.61c-12.94,0.19-21,6.57-26.99,17.93
			c-19.24,36.46-39.28,72.51-58.72,108.86c-5.27,9.85-11.24,17.74-23.72,17.9c-13.15,0.16-19.27-8.07-24.8-18.44
			c-19.4-36.38-39.57-72.35-58.83-108.8c-6.07-11.49-14.42-17.39-27.25-17.45c-12.76-0.06-21.53,5.46-27.72,16.87
			c-23.77,43.82-48.05,87.37-72.03,131.08c-8.81,16.06-22.27,25.23-40.4,25.89c-19.35,0.71-34.32-8.03-43.88-24.98
			c-24.27-43.05-48.52-86.11-72.32-129.41c-6.26-11.39-13.79-19.42-27.65-19.38c-13.84,0.04-21.32,8.09-27.58,19.48
			c-23.32,42.47-47.39,84.54-70.86,126.94c-9.68,17.49-23.84,27.43-43.92,27.45c-20.1,0.02-34.21-9.95-43.89-27.45
			c-23.68-42.8-47.99-85.25-71.55-128.11c-6.4-11.64-14.72-18.4-28.3-18.41c-13.59-0.01-21.9,6.64-28.14,18.47
			c-19.46,36.89-39.78,73.32-59.43,110.12c-5.17,9.69-11.74,16.15-23.32,16.11c-11.62-0.04-18.01-6.72-23.16-16.36
			c-19.88-37.21-40.44-74.06-60.15-111.37c-6.14-11.61-14.84-17.03-27.56-16.9c-12.05,0.12-20.62,5.13-26.66,16.12
			c-23.8,43.29-48.37,86.15-72.15,129.46c-9.6,17.48-23.15,28.21-43.33,28.27c-20.02,0.06-34.3-9.88-43.99-27.39
			c-23.69-42.82-47.92-85.35-71.53-128.23c-6.07-11.03-13.82-18.2-26.92-18.14c-13.01,0.05-20.75,6.93-26.88,18.1
			c-23.29,42.48-47.55,84.43-70.83,126.92c-10.2,18.61-24.85,29.43-46.08,28.66c-21.33-0.78-33.89-13.57-43.7-32.2
			c-23.01-43.67-47.25-86.72-72.02-129.43c-10.69-18.44-39.45-16.4-50.08,2.83c-20.66,37.33-41.05,74.82-61.12,112.47
			c-5.38,10.08-11.74,17.34-24.08,17.21c-11.69-0.13-17.95-7.04-23.06-16.58c-19.7-36.77-40.02-73.21-59.49-110.11
			c-6-11.38-13.98-17.79-26.93-17.99c-13.39-0.2-22.24,5.75-28.75,17.61c-23.54,42.9-47.67,85.47-71.62,128.14
			c-14.67,26.13-41.36,35.32-65.58,22.7c-24.27-12.64-32.93-40.66-18.69-66.82c53-97.33,106.5-194.4,160.2-291.35
			c10.85-19.6,33.63-19.05,44.64,0.6c20.62,36.82,40.99,73.77,61.03,110.91c6.46,11.97,14.61,19.63,29.12,19.43
			c13.86-0.19,21.64-7.54,27.85-19.05c19.56-36.3,39.84-72.21,59.5-108.45c5.39-9.95,11.78-17.26,24.13-17.27
			c12.3-0.01,19.01,7.2,24.42,17.06c35.75,65.16,71.62,130.25,107.47,195.36c2.71,4.92,5.51,9.8,9.44,16.77
			c16.62-30.07,32.1-57.99,47.5-85.95c22.91-41.6,45.87-83.18,68.57-124.89c5.58-10.26,12.01-18.36,25.06-18.35
			c13.05,0.01,19.45,8.16,25.05,18.39c35.48,64.82,71.17,129.53,106.81,194.27c2.92,5.31,5.98,10.54,10.03,17.66
			c24.49-44.49,47.82-86.87,71.15-129.25c15.5-28.15,31.1-56.24,46.42-84.49c5.43-10.03,12.51-16.7,24.71-16.55
			c11.69,0.14,18.03,6.99,23.18,16.45c19.96,36.63,40.42,72.98,60.17,109.73c6.27,11.67,14.41,18.59,28.13,18.55
			c13.71-0.03,21.76-6.95,28.04-18.65c19.48-36.34,39.81-72.22,59.52-108.44c5.35-9.83,11.48-17.53,23.91-17.65
			c12.95-0.12,19.64,7.58,25.31,17.93c35.93,65.62,72.1,131.1,108.21,196.62c2.7,4.9,5.56,9.71,9.61,16.77
			c8.4-15.18,15.74-28.42,23.04-41.68c31-56.33,62.06-112.62,92.92-169.02c5.96-10.9,12-20.79,26.59-20.65
			c14.62,0.14,20.35,10.4,26.27,21.19c35.53,64.78,71.2,129.49,106.86,194.21c2.24,4.07,4.73,8.02,7.98,13.51
			c28.9-52.45,56.89-103.24,84.88-154.02c10.18-18.48,20.56-36.86,30.44-55.49c5.68-10.71,12.17-19.45,25.91-19.38
			c13.17,0.07,19.15,8.57,24.68,18.77c19.19,35.41,38.93,70.52,58.08,105.95c6.37,11.78,14.07,20.1,28.73,20.07
			c14.47-0.03,22.46-7.6,28.93-19.66c19.25-35.92,39.41-71.35,58.84-107.17c5.34-9.84,11.28-17.65,23.69-17.94
			c12.97-0.3,19.86,7.3,25.52,17.64c37.11,67.72,74.4,135.35,111.64,203c2.49,4.53,5.09,9.01,8.7,15.39
			c5.8-9.83,10.68-17.93,15.39-26.12c20.82-36.18,40.72-72.93,62.53-108.5c84.51-137.82,285.41-135.29,366.66,4.28
			c0.92,1.58,2.08,3.03,3.87,5.59c2.91-4.82,5.17-8.81,7.64-12.65c46.53-72.35,114.43-103.93,198.37-97.51
			c78.86,6.02,139.54,44.22,172.72,118.02c36.87,82.02,4.23,176.85-75.7,226.07c-105.17,64.76-245.57,28.49-300.1-74.57
			C2655.3,373.12,2654.37,372.03,2652.92,369.94z M2463.82,385.92c24.19-0.13,44.75-5.73,63.41-17.67
			c56.99-36.44,58.12-111.92,2.3-150.04c-38.9-26.56-93.1-25.54-130.92,2.47c-49.76,36.85-50.3,104.98-1.08,142.6
			C2417.68,378.69,2440.69,385.67,2463.82,385.92z M2841.38,385.95c26.31-0.38,48.91-7.19,68.74-22.11
			c49.68-37.4,49.77-104.9,0.27-142.53c-41.21-31.33-102.34-29.51-141.11,4.2c-41.24,35.85-42.42,94.39-2.43,131.62
			C2788.23,377.03,2814.11,385.57,2841.38,385.95z"/>
	</g>
</g>
</svg>
