<?xml version="1.0" encoding="utf-8"?>
<!-- Generator: Adobe Illustrator 25.2.1, SVG Export Plug-In . SVG Version: 6.00 Build 0)  -->
<svg version="1.1" id="Layer_1" xmlns="http://www.w3.org/2000/svg" xmlns:xlink="http://www.w3.org/1999/xlink" x="0px" y="0px"
	 viewBox="0 0 3108 548.4" style="enable-background:new 0 0 3108 548.4;" xml:space="preserve">
<style type="text/css">
	.st0{fill:#9A6C57;}
</style>
<g>
	<g>
		<path class="st0" d="M2652.9,369.9c-39.6,70.7-100.6,107.8-180.2,110.8c-79.1,3-142.3-29.4-188.8-96.7
			c-13.1,23.3-26.1,45-37.7,67.5c-9.4,18.4-22.8,29.5-43.7,29.7c-21.4,0.2-35.6-11-45.7-29.4c-23.3-42.5-47.5-84.4-70.8-126.9
			c-6.5-11.9-15.3-17.8-28.7-17.6c-12.9,0.2-21,6.6-27,17.9c-19.2,36.5-39.3,72.5-58.7,108.9c-5.3,9.9-11.2,17.7-23.7,17.9
			c-13.2,0.2-19.3-8.1-24.8-18.4c-19.4-36.4-39.6-72.4-58.8-108.8c-6.1-11.5-14.4-17.4-27.2-17.5c-12.8-0.1-21.5,5.5-27.7,16.9
			c-23.8,43.8-48.1,87.4-72,131.1c-8.8,16.1-22.3,25.2-40.4,25.9c-19.3,0.7-34.3-8-43.9-25c-24.3-43-48.5-86.1-72.3-129.4
			c-6.3-11.4-13.8-19.4-27.7-19.4c-13.8,0-21.3,8.1-27.6,19.5c-23.3,42.5-47.4,84.5-70.9,126.9c-9.7,17.5-23.8,27.4-43.9,27.5
			c-20.1,0-34.2-10-43.9-27.5c-23.7-42.8-48-85.2-71.6-128.1c-6.4-11.6-14.7-18.4-28.3-18.4c-13.6,0-21.9,6.6-28.1,18.5
			c-19.5,36.9-39.8,73.3-59.4,110.1c-5.2,9.7-11.7,16.1-23.3,16.1c-11.6,0-18-6.7-23.2-16.4c-19.9-37.2-40.4-74.1-60.2-111.4
			c-6.1-11.6-14.8-17-27.6-16.9c-12.1,0.1-20.6,5.1-26.7,16.1c-23.8,43.3-48.4,86.1-72.2,129.5c-9.6,17.5-23.2,28.2-43.3,28.3
			c-20,0.1-34.3-9.9-44-27.4c-23.7-42.8-47.9-85.4-71.5-128.2c-6.1-11-13.8-18.2-26.9-18.1c-13,0-20.8,6.9-26.9,18.1
			c-23.3,42.5-47.5,84.4-70.8,126.9c-10.2,18.6-24.8,29.4-46.1,28.7c-21.3-0.8-33.9-13.6-43.7-32.2c-23-43.7-47.2-86.7-72-129.4
			c-10.7-18.4-39.5-16.4-50.1,2.8c-20.7,37.3-41,74.8-61.1,112.5c-5.4,10.1-11.7,17.3-24.1,17.2c-11.7-0.1-18-7-23.1-16.6
			c-19.7-36.8-40-73.2-59.5-110.1c-6-11.4-14-17.8-26.9-18c-13.4-0.2-22.2,5.8-28.8,17.6c-23.5,42.9-47.7,85.5-71.6,128.1
			c-14.7,26.1-41.4,35.3-65.6,22.7c-24.3-12.6-32.9-40.7-18.7-66.8c53-97.3,106.5-194.4,160.2-291.4c10.9-19.6,33.6-19.1,44.6,0.6
			c20.6,36.8,41,73.8,61,110.9c6.5,12,14.6,19.6,29.1,19.4c13.9-0.2,21.6-7.5,27.9-19.1c19.6-36.3,39.8-72.2,59.5-108.4
			c5.4-9.9,11.8-17.3,24.1-17.3c12.3,0,19,7.2,24.4,17.1c35.8,65.2,71.6,130.2,107.5,195.4c2.7,4.9,5.5,9.8,9.4,16.8
			c16.6-30.1,32.1-58,47.5-85.9c22.9-41.6,45.9-83.2,68.6-124.9c5.6-10.3,12-18.4,25.1-18.3s19.5,8.2,25,18.4
			c35.5,64.8,71.2,129.5,106.8,194.3c2.9,5.3,6,10.5,10,17.7c24.5-44.5,47.8-86.9,71.2-129.2c15.5-28.1,31.1-56.2,46.4-84.5
			c5.4-10,12.5-16.7,24.7-16.5c11.7,0.1,18,7,23.2,16.4c20,36.6,40.4,73,60.2,109.7c6.3,11.7,14.4,18.6,28.1,18.6
			c13.7,0,21.8-6.9,28-18.6c19.5-36.3,39.8-72.2,59.5-108.4c5.3-9.8,11.5-17.5,23.9-17.7c12.9-0.1,19.6,7.6,25.3,17.9
			c35.9,65.6,72.1,131.1,108.2,196.6c2.7,4.9,5.6,9.7,9.6,16.8c8.4-15.2,15.7-28.4,23-41.7c31-56.3,62.1-112.6,92.9-169
			c6-10.9,12-20.8,26.6-20.7c14.6,0.1,20.3,10.4,26.3,21.2c35.5,64.8,71.2,129.5,106.9,194.2c2.2,4.1,4.7,8,8,13.5
			c28.9-52.5,56.9-103.2,84.9-154c10.2-18.5,20.6-36.9,30.4-55.5c5.7-10.7,12.2-19.4,25.9-19.4c13.2,0.1,19.2,8.6,24.7,18.8
			c19.2,35.4,38.9,70.5,58.1,105.9c6.4,11.8,14.1,20.1,28.7,20.1c14.5,0,22.5-7.6,28.9-19.7c19.2-35.9,39.4-71.4,58.8-107.2
			c5.3-9.8,11.3-17.7,23.7-17.9c13-0.3,19.9,7.3,25.5,17.6c37.1,67.7,74.4,135.4,111.6,203c2.5,4.5,5.1,9,8.7,15.4
			c5.8-9.8,10.7-17.9,15.4-26.1c20.8-36.2,40.7-72.9,62.5-108.5c84.5-137.8,285.4-135.3,366.7,4.3c0.9,1.6,2.1,3,3.9,5.6
			c2.9-4.8,5.2-8.8,7.6-12.6c46.5-72.4,114.4-103.9,198.4-97.5c78.9,6,139.5,44.2,172.7,118c36.9,82,4.2,176.8-75.7,226.1
			c-105.2,64.8-245.6,28.5-300.1-74.6C2655.3,373.1,2654.4,372,2652.9,369.9z M2463.8,385.9c24.2-0.1,44.8-5.7,63.4-17.7
			c57-36.4,58.1-111.9,2.3-150c-38.9-26.6-93.1-25.5-130.9,2.5c-49.8,36.8-50.3,105-1.1,142.6
			C2417.7,378.7,2440.7,385.7,2463.8,385.9z M2841.4,386c26.3-0.4,48.9-7.2,68.7-22.1c49.7-37.4,49.8-104.9,0.3-142.5
			c-41.2-31.3-102.3-29.5-141.1,4.2c-41.2,35.8-42.4,94.4-2.4,131.6C2788.2,377,2814.1,385.6,2841.4,386z"/>
	</g>
</g>
</svg>
