<svg width="48" height="48" viewBox="0 0 48 48" fill="none" xmlns="http://www.w3.org/2000/svg">
<path d="M48 24C48 10.7452 37.2548 0 24 0C10.7452 0 0 10.7452 0 24C0 37.2548 10.7452 48 24 48C37.2548 48 48 37.2548 48 24Z" fill="#9A6C57"/>
<path d="M19 24C18.9999 23.3434 19.1292 22.6932 19.3804 22.0865C19.6316 21.4799 19.9999 20.9287 20.4641 20.4643C20.9284 20 21.4795 19.6316 22.0861 19.3803C22.6927 19.129 23.3429 18.9996 23.9995 18.9995C24.6561 18.9994 25.3063 19.1287 25.913 19.3799C26.5196 19.6311 27.0708 19.9994 27.5352 20.4636C27.9995 20.9279 28.3679 21.479 28.6192 22.0856C28.8705 22.6922 28.9999 23.3424 29 23.999C29.0001 25.3251 28.4735 26.5969 27.5359 27.5347C26.5983 28.4725 25.3266 28.9994 24.0005 28.9995C22.6744 28.9996 21.4026 28.473 20.4648 27.5354C19.527 26.5978 19.0001 25.3261 19 24ZM16.298 24C16.298 26.0427 17.1095 28.0017 18.5539 29.4461C19.9983 30.8905 21.9573 31.702 24 31.702C26.0427 31.702 28.0017 30.8905 29.4461 29.4461C30.8905 28.0017 31.702 26.0427 31.702 24C31.702 21.9573 30.8905 19.9983 29.4461 18.5539C28.0017 17.1095 26.0427 16.298 24 16.298C21.9573 16.298 19.9983 17.1095 18.5539 18.5539C17.1095 19.9983 16.298 21.9573 16.298 24ZM30.208 15.992C30.2078 16.348 30.3132 16.6962 30.5109 16.9923C30.7085 17.2884 30.9896 17.5193 31.3185 17.6557C31.6474 17.7921 32.0093 17.8279 32.3586 17.7585C32.7078 17.6892 33.0286 17.5178 33.2804 17.2661C33.5323 17.0145 33.7038 16.6937 33.7733 16.3445C33.8429 15.9953 33.8073 15.6334 33.6711 15.3044C33.5349 14.9754 33.3042 14.6943 33.0081 14.4964C32.7121 14.2986 32.364 14.193 32.008 14.193C31.5306 14.193 31.0728 14.3826 30.7352 14.7202C30.3976 15.0578 30.208 15.5156 30.208 15.993V15.992ZM17.94 36.21C16.478 36.143 15.683 35.9 15.154 35.694C14.5026 35.4532 13.9132 35.0699 13.429 34.572C12.9303 34.0885 12.5468 33.4989 12.307 32.847C12.101 32.319 11.857 31.524 11.791 30.062C11.718 28.481 11.704 28.006 11.704 24C11.704 19.994 11.72 19.52 11.791 17.938C11.858 16.476 12.103 15.682 12.307 15.153C12.58 14.453 12.904 13.953 13.429 13.427C13.9124 12.9281 14.502 12.5446 15.154 12.305C15.682 12.1 16.478 11.855 17.94 11.789C19.521 11.717 19.996 11.702 24 11.702C28.004 11.702 28.48 11.718 30.062 11.789C31.524 11.856 32.318 12.101 32.847 12.305C33.547 12.577 34.047 12.903 34.573 13.427C35.098 13.952 35.423 14.452 35.695 15.153C35.901 15.681 36.145 16.476 36.211 17.938C36.283 19.521 36.298 19.994 36.298 24C36.298 28.006 36.283 28.48 36.211 30.062C36.144 31.524 35.899 32.319 35.695 32.847C35.422 33.547 35.097 34.047 34.573 34.572C34.0885 35.07 33.4988 35.4533 32.847 35.694C32.319 35.9 31.524 36.144 30.062 36.21C28.481 36.282 28.006 36.297 24 36.297C19.994 36.297 19.52 36.282 17.94 36.21ZM17.816 9.09C16.219 9.164 15.128 9.417 14.175 9.788C13.1741 10.1647 12.2674 10.7551 11.518 11.518C10.7544 12.2668 10.1639 13.1737 9.788 14.175C9.417 15.128 9.164 16.219 9.091 17.815C9.017 19.416 9 19.927 9 24C9 28.073 9.017 28.585 9.09 30.184C9.164 31.781 9.417 32.872 9.788 33.825C10.164 34.8262 10.7545 35.7331 11.518 36.482C12.2678 37.2444 13.1744 37.8348 14.175 38.212C15.13 38.583 16.219 38.836 17.815 38.909C19.416 38.982 19.926 39 24 39C28.073 39 28.585 38.983 30.184 38.91C31.781 38.836 32.872 38.583 33.825 38.212C34.8256 37.8347 35.7322 37.2444 36.482 36.482C37.2451 35.7328 37.8356 34.826 38.212 33.825C38.583 32.872 38.838 31.781 38.909 30.185C38.982 28.584 38.999 28.074 38.999 24C38.999 19.927 38.982 19.415 38.909 17.816C38.836 16.219 38.583 15.128 38.212 14.175C37.8347 13.1744 37.2444 12.2678 36.482 11.518C35.7332 10.7548 34.8268 10.1643 33.826 9.788C32.872 9.417 31.781 9.162 30.186 9.091C28.585 9.018 28.074 9 24 9C19.927 9 19.415 9.017 17.815 9.09H17.816Z" fill="#E0D2C7"/>
</svg>
