<svg width="48" height="48" fill="none" xmlns="http://www.w3.org/2000/svg"><rect width="48" height="48" rx="24" fill="#E0D2C7"/><path d="M35.032 34.61c-.43.716-1.347.917-2.063.487-5.643-3.437-12.719-4.21-21.084-2.32-.802.172-1.604-.315-1.776-1.117-.172-.802.315-1.605 1.117-1.776 9.139-2.091 16.988-1.204 23.29 2.664.716.43.945 1.346.516 2.062zm2.922-6.531c-.545.888-1.69 1.146-2.579.63-6.445-3.982-16.27-5.128-23.89-2.807-1.003.286-2.035-.258-2.321-1.232-.286-1.003.258-2.034 1.26-2.32 8.709-2.636 19.537-1.375 26.957 3.18.83.515 1.117 1.66.572 2.549zm.257-6.818c-7.734-4.583-20.482-5.013-27.872-2.779a2.236 2.236 0 01-2.808-1.49c-.372-1.174.315-2.434 1.49-2.807 8.48-2.578 22.573-2.062 31.453 3.209a2.237 2.237 0 01.774 3.065 2.159 2.159 0 01-3.037.802z" fill="#9A6C57"/></svg>