<svg width="48" height="48" viewBox="0 0 48 48" fill="none" xmlns="http://www.w3.org/2000/svg">
<path d="M48 24C48 10.7452 37.2548 0 24 0C10.7452 0 0 10.7452 0 24C0 37.2548 10.7452 48 24 48C37.2548 48 48 37.2548 48 24Z" fill="#9A6C57"/>
<path d="M35.032 34.61C34.602 35.326 33.685 35.527 32.969 35.097C27.326 31.66 20.25 30.887 11.885 32.777C11.083 32.949 10.281 32.462 10.109 31.66C9.93703 30.858 10.424 30.055 11.226 29.884C20.365 27.793 28.214 28.68 34.516 32.548C35.232 32.978 35.461 33.894 35.032 34.61ZM37.954 28.079C37.409 28.967 36.264 29.225 35.375 28.709C28.93 24.727 19.105 23.581 11.485 25.902C10.482 26.188 9.45003 25.644 9.16403 24.67C8.87803 23.667 9.42203 22.636 10.424 22.35C19.133 19.714 29.961 20.975 37.381 25.53C38.211 26.045 38.498 27.19 37.953 28.079H37.954ZM38.211 21.261C30.477 16.678 17.729 16.248 10.339 18.482C10.0569 18.5701 9.76001 18.6015 9.46565 18.5742C9.17129 18.5469 8.88527 18.4615 8.62413 18.3229C8.363 18.1843 8.13193 17.9953 7.9443 17.7669C7.75667 17.5385 7.61621 17.2751 7.53103 16.992C7.15903 15.818 7.84603 14.558 9.02103 14.185C17.501 11.607 31.594 12.123 40.474 17.394C40.9828 17.6981 41.35 18.1917 41.4951 18.7664C41.6403 19.341 41.5514 19.9498 41.248 20.459C41.1075 20.7174 40.9157 20.9444 40.6843 21.126C40.453 21.3076 40.1869 21.44 39.9025 21.5151C39.6181 21.5902 39.3214 21.6064 39.0305 21.5627C38.7397 21.519 38.4608 21.4163 38.211 21.261Z" fill="#E0D2C7"/>
</svg>
