<?xml version="1.0" encoding="utf-8"?>
<!-- Generator: Adobe Illustrator 25.2.1, SVG Export Plug-In . SVG Version: 6.00 Build 0)  -->
<svg version="1.1" xmlns="http://www.w3.org/2000/svg" xmlns:xlink="http://www.w3.org/1999/xlink" x="0px" y="0px"
	 viewBox="0 0 391.32 391.06" style="enable-background:new 0 0 391.32 391.06;" xml:space="preserve">
<style type="text/css">
	.st0{display:none;}
	.st1{fill:#E0D2C7;}
	.st2{display:none;fill:#9A6C57;}
	.st3{fill:#9A6C57;}
	.st4{fill:none;stroke:#9A6C57;stroke-width:17;stroke-miterlimit:10;}
</style>
<g id="Layer_1" class="st0">
</g>
<g id="Layer_2">
	<g>
		<g>
			<circle class="st1" cx="195.74" cy="196.64" r="180.51"/>
			<path class="st2" d="M9.08,208.93c0-9.33,0-18.66,0-28c0.33-1.08,0.79-2.14,0.97-3.24c1.56-9.44,2.4-19.05,4.7-28.31
				c10.5-42.28,33.39-76.67,67.81-103.2c23.86-18.38,50.72-30.35,80.57-35.27c5.98-0.98,11.95-1.98,17.92-2.97c10,0,20,0,30,0
				c0.88,0.33,1.74,0.84,2.64,0.96c6.06,0.82,12.21,1.18,18.19,2.4c32.95,6.73,62.33,20.86,87.48,43.33
				c35.01,31.27,55.82,70.09,61.69,116.79c0.57,4.51,1.31,9,1.97,13.51c0,6.33,0,12.67,0,19c-0.33,1.24-0.81,2.47-0.97,3.73
				c-1.09,8.51-1.4,17.19-3.28,25.52c-11.75,52.01-40.09,92.51-85.39,120.81c-22.85,14.28-47.76,23.03-74.63,25.94
				c-5.24,0.57-10.47,1.31-15.7,1.97c-5,0-10,0-15,0c-1.59-0.33-3.16-0.77-4.77-0.98c-8.67-1.12-17.49-1.52-25.99-3.39
				c-43.62-9.58-79.72-31.63-107.64-66.62c-19.64-24.62-32.38-52.44-37.6-83.6C11.04,221.2,10.07,215.06,9.08,208.93z
				 M369.05,194.62C369.57,101.54,294.7,21.3,195.89,21.3C99.03,21.3,22.54,98.51,22.5,194.73
				c-0.04,97.83,79.52,173.17,173.24,173.3C291.27,368.17,369.83,289.68,369.05,194.62z"/>
			<path class="st2" d="M203.06,381.91c5.23-0.66,10.46-1.41,15.7-1.97c26.87-2.91,51.78-11.66,74.63-25.94
				c45.3-28.3,73.64-68.8,85.39-120.81c1.88-8.33,2.19-17.01,3.28-25.52c0.16-1.26,0.64-2.49,0.97-3.73c0,59.24,0,118.49,0,177.98
				C323.04,381.91,263.05,381.91,203.06,381.91z"/>
			<path class="st2" d="M9.08,208.93c0.99,6.13,1.96,12.27,2.98,18.39c5.22,31.15,17.96,58.98,37.6,83.6
				c27.91,34.99,64.01,57.03,107.64,66.62c8.5,1.87,17.32,2.27,25.99,3.39c1.61,0.21,3.18,0.65,4.77,0.98
				c-59.57,0-119.15,0-178.98,0C9.08,324.25,9.08,266.59,9.08,208.93z"/>
			<path class="st2" d="M383.03,184.94c-0.66-4.5-1.4-8.99-1.97-13.51c-5.87-46.7-26.68-85.52-61.69-116.79
				c-25.16-22.47-54.53-36.6-87.48-43.33c-5.98-1.22-12.13-1.57-18.19-2.4c-0.91-0.12-1.76-0.63-2.64-0.96
				c57.33,0,114.65,0,171.98,0C383.03,66.95,383.03,125.94,383.03,184.94z"/>
			<path class="st2" d="M181.06,7.96c-5.97,0.99-11.95,1.99-17.92,2.97c-29.85,4.92-56.72,16.88-80.57,35.27
				c-34.42,26.53-57.32,60.92-67.81,103.2c-2.3,9.25-3.14,18.87-4.7,28.31c-0.18,1.1-0.64,2.16-0.97,3.24c0-57.58,0-115.15,0-172.98
				C66.41,7.96,123.73,7.96,181.06,7.96z"/>
			<path class="st2" d="M369.05,194.62c0.78,95.07-77.78,173.55-173.31,173.41c-93.72-0.14-173.28-75.47-173.24-173.3
				C22.54,98.51,99.03,21.3,195.89,21.3C294.7,21.3,369.57,101.54,369.05,194.62z M253.85,220.16c-1.72-0.31-2.99-0.59-4.28-0.76
				c-10.05-1.32-19.89-1.04-28.68,4.85c-9.25,6.2-13.68,14.88-11.75,26c1.48,8.52,7.43,13.47,15.4,15.88
				c19.52,5.89,45.96-2.45,46.35-32.35c0.53-40.8,0.16-81.61,0.09-122.42c-0.01-8.57-6.67-13.8-14.94-12.24
				c-31.88,5.99-63.76,11.96-95.65,17.89c-10.08,1.88-15.33,8.18-15.33,18.69c0,34.31,0,68.62,0,102.94c0,1.72,0,3.44,0,5.49
				c-1.63-0.32-2.43-0.45-3.22-0.64c-12.34-2.91-23.7-1.01-33.53,7.28c-7.52,6.35-10.21,14.86-8.01,24.19
				c1.95,8.23,8.21,13.25,16.37,14.94c5.07,1.05,10.46,1.2,15.66,0.94c13.59-0.67,24.17-9.26,27.66-22.43
				c1.22-4.59,1.91-9.45,1.94-14.19c0.17-29.98,0.1-59.96,0.1-89.94c0-1.96,0-3.91,0-6.16c30.82-5.92,61.11-11.74,91.8-17.63
				C253.85,167.51,253.85,193.44,253.85,220.16z"/>
			<path class="st3" d="M253.85,220.16c0-26.71,0-52.65,0-79.67c-30.69,5.89-60.99,11.71-91.8,17.63c0,2.25,0,4.2,0,6.16
				c0,29.98,0.07,59.96-0.1,89.94c-0.03,4.74-0.72,9.6-1.94,14.19c-3.49,13.17-14.08,21.76-27.66,22.43
				c-5.2,0.26-10.59,0.12-15.66-0.94c-8.16-1.69-14.42-6.71-16.37-14.94c-2.21-9.33,0.48-17.84,8.01-24.19
				c9.83-8.29,21.19-10.19,33.53-7.28c0.79,0.19,1.59,0.32,3.22,0.64c0-2.05,0-3.77,0-5.49c0-34.31,0-68.62,0-102.94
				c0-10.51,5.25-16.82,15.33-18.69c31.89-5.93,63.77-11.89,95.65-17.89c8.27-1.56,14.92,3.67,14.94,12.24
				c0.07,40.81,0.44,81.62-0.09,122.42c-0.39,29.89-26.83,38.24-46.35,32.35c-7.97-2.41-13.92-7.36-15.4-15.88
				c-1.94-11.12,2.5-19.8,11.75-26c8.79-5.9,18.62-6.17,28.68-4.85C250.86,219.56,252.13,219.85,253.85,220.16z"/>
		</g>
	</g>
	<circle class="st4" cx="195.65" cy="195.35" r="186.56"/>
</g>
</svg>
