<svg width="48" height="48" fill="none" xmlns="http://www.w3.org/2000/svg"><rect width="48" height="48" rx="24" fill="#E0D2C7"/><path fill-rule="evenodd" clip-rule="evenodd" d="M35.738 14.14a3.76 3.76 0 012.644 2.645c.643 2.347.618 7.24.618 7.24s0 4.868-.618 7.216a3.759 3.759 0 01-2.644 2.644c-2.348.618-11.738.618-11.738.618s-9.366 0-11.738-.643a3.759 3.759 0 01-2.644-2.644C9 28.893 9 24 9 24s0-4.868.618-7.215a3.836 3.836 0 012.644-2.67C14.61 13.499 24 13.499 24 13.499s9.39 0 11.738.643zM28.818 24l-7.808 4.498v-8.995L28.819 24z" fill="#9A6C57"/></svg>