<?xml version="1.0" encoding="utf-8"?>
<!-- Generator: Adobe Illustrator 25.2.1, SVG Export Plug-In . SVG Version: 6.00 Build 0)  -->
<svg version="1.1" id="Layer_1" xmlns="http://www.w3.org/2000/svg" xmlns:xlink="http://www.w3.org/1999/xlink" x="0px" y="0px"
	 viewBox="0 0 524.96 524.12" style="enable-background:new 0 0 524.96 524.12;" xml:space="preserve">
<style type="text/css">
	.st0{fill:#E0D2C7;}
	.st1{display:none;fill:#9A6C57;}
	.st2{fill:#9A6C57;}
	.st3{fill:none;stroke:#9A6C57;stroke-width:4;stroke-miterlimit:10;}
</style>
<g id="Layer_1_1_">
	<circle class="st0" cx="282.48" cy="268.07" r="209.94"/>
	<g>
		<rect x="-178.06" y="-112.85" class="st1" width="1007.23" height="739.91"/>
		<path class="st1" d="M13.62,211.27C26.74,149.2,58.55,98.55,108.9,59.87c37.47-28.79,79.92-45.63,127-50.65
			c6.92-0.74,13.84-1.43,20.76-2.14c-82.94,0-165.87,0-248.81,0c0,82.83,0,165.66,0,248.49c0.34-2.11,0.73-4.21,1-6.33
			C10.4,236.56,10.99,223.7,13.62,211.27z"/>
		<path class="st1" d="M270.64,7.07c1.95,0.32,3.89,0.72,5.85,0.96c12.84,1.57,25.88,2.19,38.5,4.82
			c57.46,11.97,105.48,40.35,143.47,85.06c33.49,39.41,53.1,84.98,58.8,136.43c0.78,7.07,1.46,14.15,2.19,21.22
			c0-82.83,0-165.66,0-248.49C436.51,7.07,353.58,7.07,270.64,7.07z"/>
		<path class="st1" d="M212.3,512.23c-62.15-13.1-112.86-44.87-151.6-95.16c-28.72-37.27-45.56-79.51-50.67-126.33
			c-0.77-7.07-1.46-14.14-2.19-21.22c0,82.83,0,165.66,0,248.49c82.94,0,165.87,0,248.81,0c-2.12-0.34-4.22-0.73-6.35-1
			C237.63,515.46,224.75,514.86,212.3,512.23z"/>
		<path class="st1" d="M513.67,313.81c-12.04,57.57-40.57,105.63-85.55,143.61c-39.38,33.26-84.89,52.74-136.23,58.41
			c-7.08,0.78-14.17,1.46-21.26,2.18c82.94,0,165.87,0,248.81,0c0-82.83,0-165.66,0-248.49c-0.34,2.11-0.74,4.21-1,6.33
			C516.89,288.52,516.27,301.37,513.67,313.81z"/>
		<path class="st1" d="M464.68,235.38c-8.65-0.05-17.3-0.01-26.56-0.01c-8.72-48.19-31.96-87.12-71.46-115.59
			C327.13,91.29,282.76,81,234.79,88.86c-82.52,13.53-142.57,82.3-147.15,163.1c-5.33,94,61.34,169.5,145.45,184.03
			c40.35,6.97,79.01,1.07,114.84-18.86c50.18-27.9,79.66-70.99,90.3-127.41c8.96,0,17.6,0.03,26.23-0.01
			c16.5-0.07,29.02-11.94,28.87-27.31C493.18,247.09,480.89,235.46,464.68,235.38z M196.63,296.68c-5.62,5.55-12.55,7.89-19.94,7.71
			c-18.43,0.92-33.24-13.04-32.46-32.23c0.78-19.3,17.05-32.48,36.01-29.46c4.92,0.78,9.85,2.81,14.25,5.21
			c4.43,2.41,5.17,7.14,2.69,10.62c-2.29,3.21-6.6,3.71-10.72,1.53c-2.75-1.45-5.6-3.15-8.58-3.63c-6.94-1.12-12.47,2.08-15.56,8.2
			c-3.51,6.96-2.37,16.1,2.68,21.39c4.54,4.75,11.5,6.09,17.92,3.26c1.96-0.86,3.7-2.2,5.57-3.28c3.4-1.95,6.57-1.45,8.82,1.65
			C199.49,290.63,199.37,293.98,196.63,296.68z M263.33,293.94c0.03,4.81-1.51,8.66-6.6,9.77c-4.86,1.06-7.8-1.68-9.77-6.33
			c-1.17,0.78-2.23,1.42-3.23,2.16c-7.46,5.5-15.69,6.1-24.15,3.21c-7.66-2.62-12.18-10.2-11.38-18
			c0.95-9.21,6.39-15.64,15.67-16.69c6.31-0.72,12.81,0.2,19.22,0.44c1.28,0.05,2.56,0.32,4.25,0.54
			c-0.2-8.25-3.71-12.17-11.65-12.49c-4.24-0.17-8.56,0.73-12.78,1.49c-5.12,0.92-8.64-0.52-9.72-4.43c-0.97-3.54,1.2-7.5,5.93-8.27
			c7.96-1.29,16.2-2.79,24.11-2.05c13.2,1.24,19.73,10.07,20.04,24.73C263.46,276.65,263.28,285.3,263.33,293.94z M312.39,228.33
			c-0.55,4.05-3.44,5.36-6.98,5.85c-6.64,0.91-7.73,2.38-6.68,9.36c5.03,1.32,13.64-2.13,13.44,7.27c-0.19,8.6-8.1,5.64-13.85,6.85
			c0,3.2,0,6.46,0,9.72c0,8.97,0.06,17.94-0.03,26.91c-0.06,5.82-3.73,9.91-8.46,9.73c-4.64-0.18-7.87-4.05-7.89-9.7
			c-0.05-12.11-0.01-24.22-0.01-36.33c-1.39-0.56-2.76-0.71-3.43-1.48c-1.66-1.86-4.15-4.02-4.13-6.04c0.02-2.06,2.23-5.1,4.21-5.9
			c3.01-1.22,3.36-2.84,3.41-5.54c0.28-14.7,12.57-23.04,26.28-17.84C311.39,222.38,312.86,224.89,312.39,228.33z M369.15,278.69
			c-8.97,0.21-17.96,0.07-26.93,0.11c-1.96,0.01-3.91,0.18-6.33,0.29c2.22,10.89,12.14,15.46,22.7,11.07
			c1.82-0.76,3.41-2.1,5.23-2.85c3.13-1.29,6.28-1.49,8.41,1.76c2.02,3.08,1.51,6.17-1.27,8.47c-9.45,7.82-20.36,8.68-31.51,5.19
			c-11.08-3.47-17.8-11.58-19.49-23.04c-2.58-17.51,5.55-31.64,20.13-36.14c18.76-5.79,37.23,7.3,37.31,26.43
			C377.43,276.03,375.28,278.54,369.15,278.69z"/>
		<path class="st1" d="M228.27,278.33c2.43-1.25,5.3-1.65,7.5-2.29c2.42,0.43,4.22,0.7,5.99,1.06c3.1,0.63,5.05,1.79,5.86,3.45
			c-1.57-4.45-7.26-7.35-13.66-6.66c-7.18,0.77-12.54,5.76-11.96,11.14c0.45,4.17,4.34,7.35,9.42,8.21
			c-1.57-0.28-3.03-0.83-4.25-1.68C222.56,288.33,223.04,281.02,228.27,278.33z"/>
		<path class="st1" d="M246.23,287.59c-2.37,3.81-7.73,6-12.64,5.88c0.8,0.03,1.62,0,2.45-0.09c6.91-0.74,12.11-5.39,11.98-10.53
			C247.94,284.22,247.35,285.81,246.23,287.59z"/>
		<g>
			<path class="st2" d="M516.25,233.96c-5.68-51.29-25.21-96.73-58.56-136.01c-37.84-44.57-85.66-72.86-142.88-84.79
				c-12.57-2.62-25.56-3.23-38.35-4.8c-1.95-0.24-3.88-0.64-5.82-0.96c-4.64,0-9.29,0-13.93,0c-6.89,0.71-13.78,1.4-20.67,2.13
				c-46.88,5-89.16,21.8-126.48,50.5c-50.14,38.56-81.82,89.05-94.88,150.93c-2.62,12.4-3.21,25.22-4.77,37.84
				c-0.26,2.11-0.66,4.21-0.99,6.31c0,4.64,0,9.29,0,13.93c0.72,7.05,1.41,14.11,2.18,21.15c5.09,46.68,21.86,88.78,50.46,125.95
				c38.58,50.13,89.08,81.8,150.98,94.86c12.4,2.62,25.22,3.21,37.85,4.77c2.12,0.26,4.22,0.66,6.32,0.99c4.64,0,9.29,0,13.93,0
				c7.06-0.72,14.12-1.4,21.17-2.18c51.13-5.65,96.45-25.07,135.67-58.23c44.79-37.87,73.21-85.78,85.2-143.17
				c2.59-12.4,3.21-25.22,4.76-37.84c0.26-2.11,0.66-4.21,0.99-6.31c0-4.64,0-9.29,0-13.93C517.71,248.06,517.03,241,516.25,233.96z
				 M463.67,289.16c-8.6,0.04-17.2,0.01-26.13,0.01c-10.6,56.25-39.95,99.2-89.93,127.02c-35.69,19.87-74.19,25.75-114.37,18.8
				c-83.77-14.48-150.16-89.75-144.86-183.46c4.56-80.55,64.36-149.11,146.55-162.6c47.77-7.84,91.96,2.42,131.33,30.82
				c39.35,28.38,62.49,67.19,71.17,115.24c9.23,0,17.84-0.04,26.45,0.01c16.14,0.09,28.39,11.67,28.54,26.94
				C492.57,277.26,480.1,289.09,463.67,289.16z"/>
			<path class="st2" d="M263.31,267.53c-0.32-14.62-6.82-23.42-19.96-24.66c-7.88-0.74-16.08,0.75-24.01,2.04
				c-4.71,0.76-6.88,4.72-5.91,8.25c1.07,3.9,4.58,5.34,9.68,4.42c4.21-0.76,8.51-1.66,12.73-1.49c7.9,0.32,11.41,4.23,11.6,12.45
				c-1.69-0.22-2.96-0.5-4.23-0.54c-6.39-0.24-12.86-1.15-19.14-0.44c-9.24,1.06-14.65,7.46-15.6,16.64
				c-0.8,7.78,3.7,15.34,11.33,17.95c8.42,2.89,16.62,2.29,24.05-3.2c1-0.73,2.06-1.38,3.22-2.15c1.96,4.64,4.89,7.38,9.73,6.31
				c5.07-1.11,6.6-4.94,6.57-9.74C263.31,284.76,263.49,276.14,263.31,267.53z M248.13,282.32c0.13,5.13-5.05,9.76-11.93,10.5
				c-0.83,0.09-1.65,0.11-2.44,0.09c-0.74-0.02-1.47-0.1-2.18-0.22c-5.05-0.86-8.93-4.02-9.38-8.18
				c-0.58-5.37,4.75-10.34,11.91-11.11c6.38-0.69,12.05,2.21,13.61,6.64C248.04,280.72,248.18,281.48,248.13,282.32z"/>
			<path class="st2" d="M339.82,243.13c-14.53,4.49-22.62,18.58-20.05,36.03c1.68,11.43,8.38,19.51,19.41,22.97
				c11.1,3.48,21.97,2.62,31.38-5.17c2.76-2.29,3.28-5.37,1.26-8.44c-2.13-3.24-5.27-3.04-8.38-1.75c-1.82,0.75-3.39,2.09-5.21,2.84
				c-10.52,4.37-20.39-0.18-22.6-11.04c2.4-0.12,4.35-0.28,6.3-0.29c8.94-0.04,17.89,0.1,26.82-0.11c6.1-0.14,8.25-2.64,8.22-8.69
				C376.9,250.4,358.51,237.36,339.82,243.13z M335.59,268.07c0.71-8.56,5.91-13.51,13.65-13.27c6.93,0.22,11.8,5.56,11.86,13.27
				C352.31,268.07,343.96,268.07,335.59,268.07z"/>
			<path class="st2" d="M188.84,285.46c-1.86,1.07-3.6,2.41-5.55,3.26c-6.4,2.82-13.33,1.48-17.85-3.25
				c-5.02-5.27-6.16-14.39-2.66-21.32c3.08-6.1,8.58-9.29,15.49-8.18c2.97,0.48,5.81,2.17,8.54,3.62c4.1,2.17,8.4,1.67,10.67-1.53
				c2.47-3.47,1.73-8.18-2.68-10.59c-4.39-2.39-9.29-4.41-14.19-5.19c-18.89-3.01-35.09,10.13-35.86,29.37
				c-0.77,19.14,13.98,33.05,32.33,32.13c7.37,0.19,14.26-2.15,19.86-7.68c2.72-2.69,2.85-6.03,0.68-9.01
				C195.38,284.02,192.22,283.52,188.84,285.46z"/>
			<path class="st2" d="M308.1,220.85c-13.65-5.18-25.9,3.14-26.18,17.79c-0.05,2.7-0.39,4.31-3.4,5.52
				c-1.97,0.8-4.18,3.83-4.19,5.88c-0.02,2.01,2.47,4.17,4.12,6.02c0.68,0.76,2.04,0.91,3.42,1.47c0,12.07-0.03,24.14,0.01,36.21
				c0.02,5.63,3.23,9.49,7.86,9.67c4.71,0.19,8.37-3.9,8.42-9.7c0.09-8.94,0.02-17.89,0.03-26.83c0-3.25,0-6.5,0-9.69
				c5.73-1.21,13.61,1.74,13.8-6.83c0.2-9.38-8.37-5.93-13.38-7.25c-1.05-6.96,0.04-8.42,6.65-9.33c3.53-0.49,6.4-1.79,6.96-5.83
				C312.69,224.54,311.23,222.04,308.1,220.85z"/>
		</g>
		<path class="st1" d="M233.6,293.47c-0.75-0.03-1.48-0.11-2.19-0.23C232.12,293.37,232.85,293.45,233.6,293.47z"/>
		<path class="st1" d="M248.03,282.85c0.06-0.85-0.09-1.61-0.42-2.29c0.19,0.54,0.33,1.1,0.4,1.68
			C248.03,282.45,248.03,282.65,248.03,282.85z"/>
		<path class="st1" d="M246.23,287.59c1.11-1.79,1.71-3.37,1.8-4.74c-0.01-0.2,0-0.41-0.02-0.61c-0.06-0.58-0.2-1.14-0.4-1.68
			c-0.81-1.66-2.76-2.83-5.86-3.45c-1.78-0.36-3.57-0.63-5.99-1.06c-2.2,0.64-5.07,1.04-7.5,2.29c-5.23,2.68-5.71,10-1.11,13.23
			c1.22,0.86,2.68,1.4,4.25,1.68c0.71,0.12,1.44,0.2,2.19,0.23C238.5,293.59,243.86,291.4,246.23,287.59z"/>
		<path class="st1" d="M349.56,255.24c-7.77-0.25-13,4.72-13.71,13.31c8.4,0,16.79,0,25.62,0
			C361.42,260.82,356.52,255.46,349.56,255.24z"/>
	</g>
</g>
<g id="Layer_2_1_">
	<ellipse class="st3" cx="263.68" cy="262.44" rx="254.76" ry="253.38"/>
</g>
</svg>
