<?xml version="1.0" encoding="utf-8"?>
<!-- Generator: Adobe Illustrator 25.2.1, SVG Export Plug-In . SVG Version: 6.00 Build 0)  -->
<svg version="1.1" id="Layer_1" xmlns="http://www.w3.org/2000/svg" xmlns:xlink="http://www.w3.org/1999/xlink" x="0px" y="0px"
	 viewBox="0 0 96 95.99" style="enable-background:new 0 0 96 95.99;" xml:space="preserve">
<style type="text/css">
	.st0{fill:#E0D2C7;}
	.st1{fill:#996C57;}
</style>
<circle class="st0" cx="48" cy="48" r="48"/>
<path class="st1" d="M43.49,24.59c0.21-0.55,0.36-0.88,0.47-1.23c3.35-10.42,18.37-9.98,20.65,1.19c0.59,2.87-0.15,4.78-1.35,8.82
	c-0.19,0.62-0.06,0.96,0.63,1.15c2.17,0.6,3.75,1.97,4.76,3.96c0.33,0.65,0.73,0.86,1.45,0.85c6.27-0.1,10.72,5.34,8.67,12.71
	c-0.54,1.94-1.11,3.86-1.67,5.79c-1.71,5.89-4.66,5.51-5.19,7.07c-8.7,25.95-47.65,20.31-48.12-5.98c-0.05-2.81-0.01-5.62-0.01-8.43
	c0-2.42,0.72-4.61,2.22-6.5c0.8-1,0.69-0.33-3.35-14.58c-1.69-5.95,2.04-12.12,8.1-13.37c5.17-1.06,10.42,1.92,12.23,7.05
	C43.13,23.53,43.27,23.94,43.49,24.59L43.49,24.59z M48.69,58.02c0.42,1.4,1.4,1.83,1.2,6.59c-0.04,1.02-0.66,1.62-1.61,1.62
	c-1.99-0.01-1.56-2.1-1.63-3.49c-0.12-2.52-1.63-4.37-3.94-4.8c-0.6-0.11-1.24-0.04-1.85-0.1c-2.07-0.18-2.2-3-0.06-3.24
	c0.81-0.09,6.03-0.03,9.93-0.15c4.73-0.15,4.58-7.51,0.09-7.58c-5.53-0.09-11.05-0.12-16.58-0.06c-2.59,0.03-3.81,1.45-3.83,4.09
	c-0.06,8.36-0.76,14.36,5.7,19.85c5.63,4.78,12.13,5.42,18.91,3.18c5.35-1.77,8.9-5.53,10.52-11.01c0.25-0.83,0.22-1.4-0.72-1.72
	c-1.41-0.48-1.37-1.88-2.68-0.65c-3.36,3.14-8.56,2.39-10.81-1.51C50.56,57.73,50.28,57.62,48.69,58.02L48.69,58.02z M28.87,26.52
	c0.56,2.97-0.65-2.07,4.34,15.88c0.22,0.78,0.56,1.08,1.41,1.08c5.17-0.04,10.35-0.03,15.53-0.01c2.5,0.01,3.07,1.06,3.49-0.45
	c4.27-15.39,4.66-15.65,4.47-17.01c-0.63-4.54-6.44-4.57-7.79-0.68c-0.42,1.21-2.51,8.6-4.01,13.6c-0.51,1.7-1.76,2.52-3.33,2.23
	c-1.38-0.25-1.99-1.25-2.35-2.49c-3.7-12.76-3.81-13.27-4.31-14.15c-0.9-1.6-2.77-2.36-4.49-1.9C30.07,23.1,28.94,24.61,28.87,26.52
	L28.87,26.52z M57.35,42.49c-0.42,1.1-0.72,2.25-1.02,3.39c-0.07,0.27,0.02,0.66,0.17,0.91c2.13,3.41,0.63,7.7-1.98,9.58
	c-1.57,1.13,2.27,4.23,4.88,2.05c0.57-0.47,1.13-1.13,1.34-1.81c1.23-4.07,2.43-8.14,3.49-12.25
	C65.32,40.17,58.99,38.23,57.35,42.49z M70.29,45.85c-1.49-0.27-3.11,0.78-3.64,2.46c-0.64,2.05-1.23,4.13-1.79,6.2
	c-1.09,4.07,4.97,6.24,6.43,1.5c0.6-1.94,1.13-3.91,1.68-5.86C73.46,48.43,72.58,46.26,70.29,45.85L70.29,45.85z"/>
</svg>
