<svg width="104" height="71" viewBox="0 0 104 71" fill="none" xmlns="http://www.w3.org/2000/svg">
<g clip-path="url(#clip0)" filter="url(#filter0_d)">
<path d="M29.2352 18.8824C31.0712 19.8597 31.8525 21.2476 31.8135 23.1632C31.7549 25.372 31.7744 27.6004 31.7744 29.8092C31.7744 30.3565 31.7158 30.591 31.0322 30.591C23.7467 30.5715 16.4613 30.5715 9.17582 30.6106C8.4336 30.6106 8.25781 30.4542 8.25781 29.6919C8.27735 25.0006 8.25781 20.3093 8.19922 15.618C8.19922 14.8948 8.39454 14.6798 9.09769 14.8166C10.5626 15.1294 11.5587 15.9503 12.2033 17.3968C12.3791 17.1232 12.5158 16.8886 12.6525 16.654C13.4143 15.3444 14.5276 14.6211 16.0706 14.6211C21.0904 14.6211 26.0906 14.6016 31.1103 14.5625C31.7353 14.5625 31.9502 14.7384 31.8525 15.3444C31.8135 15.5594 31.8721 15.794 31.8721 16.0285C31.8525 18.0223 31.3447 18.5892 29.2352 18.8824ZM12.4572 28.6559C13.2776 27.3072 14.2737 26.3689 15.6995 26.3493C19.3715 26.3103 23.0436 26.3493 26.7156 26.408C27.4774 26.4275 27.6727 26.2125 27.6531 25.4893C27.6141 23.5346 27.6336 21.5799 27.6727 19.6252C27.6922 18.941 27.4773 18.7456 26.7937 18.7456C22.399 18.7847 18.0238 18.7651 13.6291 18.7651C13.258 18.7651 12.8674 18.8042 12.4572 18.8237C12.4572 22.1272 12.4572 25.2743 12.4572 28.6559Z" fill="#9A6C57"/>
<path d="M74.3737 20.8175C74.4127 20.5829 74.5104 20.4461 74.569 20.3875C76.8738 17.475 79.4715 15.3052 83.3975 15.2661C86.7765 15.227 89.0813 16.9863 90.6829 19.8206C93.476 24.7855 92.558 29.6918 90.2141 34.4808C88.7297 37.4911 86.4835 39.8758 83.3389 41.205C79.9989 42.6124 76.7761 42.2996 74.1197 39.7194C72.2251 37.882 71.3267 35.4582 71.0532 32.8389C70.9556 31.8615 70.9556 30.8842 70.9946 29.9459C71.3657 31.3533 71.5806 32.8389 72.1275 34.1876C73.8268 38.2143 78.2605 39.5044 82.0302 37.1392C85.2725 35.0868 87.0304 32.0179 87.6554 28.304C88.007 26.1929 88.0851 24.0623 87.2453 22.0099C85.253 17.2208 80.1747 15.9503 76.1706 19.2537C75.5846 19.7033 75.0377 20.2115 74.3737 20.8175Z" fill="#9A6C57"/>
<path d="M87.2452 48.3006C82.3817 53.0505 77.4791 57.82 72.5766 62.5895C70.8773 61.1821 70.8383 58.5823 72.4985 56.9209C76.3658 53.0701 80.2722 49.278 84.1786 45.4468C86.0928 43.5507 88.0265 41.6742 89.9211 39.7586C90.4875 39.1722 90.8977 39.1135 91.5227 39.7586C93.1634 41.4396 93.2024 42.4756 91.5422 44.098C90.4484 45.1535 89.3742 46.2286 88.2999 47.3819C91.0735 46.7369 93.0462 47.9683 94.8236 49.8644C96.1518 51.2913 97.5581 52.64 98.9644 54.0083C99.4918 54.5166 99.609 54.9466 98.9839 55.4548C98.7495 55.6307 98.5738 55.8653 98.3589 56.0803C97.3237 57.0772 96.1127 57.0968 95.0775 56.0803C92.4602 53.5001 89.8625 50.9199 87.2452 48.3006Z" fill="#9A6C57"/>
<path d="M42.4196 39.7781C43.3181 37.8821 44.783 37.1784 46.7167 37.1979C50.1738 37.237 53.6115 37.2175 57.0686 37.1784C57.7718 37.1784 58.0062 37.4129 57.9281 38.0775C57.8695 38.5857 57.9281 39.1135 57.8304 39.6217C57.6155 40.6577 56.8929 41.2441 55.8381 41.2441C51.3262 41.2637 46.7948 41.2637 42.2829 41.2441C40.0562 41.2246 38.4155 39.5826 38.396 37.3347C38.3374 30.0828 38.2983 22.8113 38.2397 15.5594C38.2397 14.9339 38.4155 14.7384 39.0601 14.7189C42.1071 14.6602 42.4587 15.3444 42.4391 18.0614C42.4001 25.2547 42.4196 32.448 42.4196 39.7781Z" fill="#9A6C57"/>
<path d="M59.6074 14.8361C60.9747 14.4256 62.7911 16.0871 63.2013 17.3186C63.4943 18.1982 63.7091 19.1365 63.7482 20.0552C63.8263 22.1272 63.7677 24.2187 63.7677 26.4275C65.3889 26.4275 66.9319 26.4275 68.4554 26.4275C68.7484 29.4964 68.9633 31.0406 63.7482 30.6497C63.7482 31.0992 63.7482 31.5488 63.7482 31.9789C63.7287 37.7843 63.7091 43.5702 63.6701 49.3757C63.6701 49.5907 63.3771 50.0012 63.2013 50.0012C62.4591 50.0207 61.6974 50.0012 60.9747 49.8448C60.0957 49.6493 59.6856 48.8675 59.666 47.7142C59.6465 39.9931 59.627 32.2721 59.6074 24.551C59.5879 21.5212 59.5684 18.4914 59.5488 15.4616C59.5488 15.2466 59.5879 15.0316 59.6074 14.8361Z" fill="#9A6C57"/>
<path d="M22.0278 43.1011C21.8325 43.1793 21.7934 43.1989 21.7739 43.1989C18.5511 43.453 17.887 42.8275 18.0042 39.6022C18.0432 38.6053 18.0042 37.5889 18.0042 36.3965C16.8127 36.3965 15.6603 36.3965 14.5079 36.3965C12.4571 36.3965 10.4062 36.4356 8.35535 36.4161C6.48027 36.3965 5.05443 35.3019 4.52707 33.5231C4.23409 32.5262 4.40988 32.2916 5.40601 32.2916C10.0937 32.2916 14.7814 32.2916 19.4691 32.2916C24.5474 32.2916 29.6062 32.3112 34.6845 32.2721C35.4658 32.2721 35.7783 32.4676 35.6611 33.2494C35.6221 33.5622 35.6611 33.8945 35.6416 34.2268C35.583 35.5951 34.7822 36.3965 33.415 36.3965C30.0359 36.3965 26.6569 36.3965 23.2583 36.3965C22.8677 36.3965 22.4965 36.3965 22.0082 36.3965C22.0278 38.7031 22.0278 40.9119 22.0278 43.1011Z" fill="#9A6C57"/>
<path d="M8.35526 39.2308C10.1913 39.2504 11.0897 40.4037 11.7343 41.7329C12.1054 42.4952 12.2226 43.4139 12.2812 44.2544C12.3593 45.6618 12.3007 47.0887 12.3984 48.5157C13.2578 46.7369 14.6641 45.9746 16.5392 45.9746C21.2269 45.9746 25.9146 45.9941 30.6023 45.955C31.4421 45.955 31.8132 46.0918 31.7742 47.0692C31.6961 49.3757 31.0906 50.0403 28.8248 50.0403C22.9652 50.0403 17.1056 50.0403 11.2655 50.0208C10.6405 50.0208 9.91782 49.9621 9.40999 49.6494C8.94122 49.3757 8.45292 48.7307 8.43338 48.2225C8.29666 45.2709 8.35526 42.3193 8.35526 39.2308Z" fill="#9A6C57"/>
<path d="M93.5542 15.9308C96.0347 16.0285 97.6168 18.6283 97.6168 20.4461C97.6363 27.1508 97.5973 33.8554 97.5777 40.5405C97.5777 41.1073 97.3824 41.3028 96.8355 41.2637C96.6011 41.2442 96.3863 41.2637 96.1519 41.2637C94.2378 41.2637 93.4956 40.5405 93.4956 38.6249C93.476 33.8358 93.4956 29.0664 93.476 24.2774C93.476 22.5181 93.3784 20.7589 93.4174 19.0192C93.4565 18.0223 93.437 16.9863 93.5542 15.9308Z" fill="#9A6C57"/>
<path d="M50.2912 0.234619C47.6934 0.234619 45.584 2.48253 45.584 5.2582C45.584 8.03388 47.6934 10.2818 50.2912 10.2818C52.889 10.2818 54.9984 8.03388 54.9984 5.2582C55.018 2.48253 52.9085 0.234619 50.2912 0.234619ZM50.2912 8.11206C48.7872 8.11206 47.5763 6.82196 47.5763 5.21911C47.5763 3.6358 48.7872 2.32615 50.2912 2.32615C51.7952 2.32615 53.0062 3.61625 53.0062 5.21911C53.0062 6.82196 51.7756 8.11206 50.2912 8.11206Z" fill="#9A6C57"/>
<path d="M43.3379 0.469238V9.10901C43.3379 9.10901 44.4512 10.2427 44.7051 10.2623C44.959 10.2818 45.1934 9.77361 45.1934 9.77361V0.918819C45.1934 0.918819 44.9786 0.508332 44.7833 0.508332C44.6075 0.508332 43.3379 0.508332 43.3379 0.508332" fill="#9A6C57"/>
<path d="M25.8765 0.410522H27.1656C27.1656 0.410522 27.6539 0.684181 27.6148 0.860104C27.5758 1.03603 27.6148 9.46079 27.6148 9.46079C27.6148 9.46079 28.4156 8.44434 28.6305 8.44434C28.8453 8.44434 32.3416 8.44434 32.3416 8.44434V0.410522H33.6502C33.6502 0.410522 34.0995 0.664634 34.0995 0.860104C34.0995 1.05557 34.0995 9.55852 34.0995 9.55852C34.0995 9.55852 33.7088 10.184 33.4744 10.184C33.24 10.184 27.0875 10.184 27.0875 10.184C27.0875 10.184 25.8765 9.77354 25.8765 8.97211C25.8765 8.17068 25.8765 0.410522 25.8765 0.410522Z" fill="#9A6C57"/>
<path d="M9.13725 0.410522H16.3641V1.50515C16.3641 1.50515 15.8563 2.03292 15.6414 2.01338C15.4266 1.99383 9.44976 2.01338 9.44976 2.01338L8.94193 1.8961L9.3521 2.32613C9.3521 2.32613 9.85993 2.71707 9.899 3.22529C9.93806 3.73351 9.91853 5.19954 9.91853 5.19954C9.91853 5.19954 10.485 4.31992 10.9537 4.28083C11.442 4.24174 15.2117 4.28083 15.2117 4.28083C15.2117 4.28083 16.0907 4.63268 16.0907 5.12135C16.0907 5.62957 16.0907 9.89082 16.0907 9.89082C16.0907 9.89082 16.1102 10.2622 15.7195 10.2622C15.3289 10.2622 9.21537 10.2622 9.21537 10.2622C9.21537 10.2622 8.18018 9.34351 8.18018 9.22622C8.18018 9.10894 8.51222 8.3857 8.51222 8.3857H14.7429V6.00097H9.23491C9.23491 6.00097 8.27784 5.41456 8.27784 5.04316C8.27784 4.67177 8.27784 1.30968 8.27784 1.30968C8.27784 1.30968 8.8638 0.645087 9.13725 0.410522Z" fill="#9A6C57"/>
<path d="M18.161 0.410522H25.212C25.2316 0.410522 25.2511 0.430069 25.2511 0.449616V1.8961C25.2511 1.91564 25.2316 1.93519 25.212 1.93519H22.0674C22.0479 1.93519 22.0283 1.95474 22.0283 1.97428V10.0667C22.0283 10.0863 22.0088 10.1058 21.9893 10.1058H20.8369C20.8369 10.1058 20.8369 10.1058 20.8173 10.1058C20.7783 10.0863 20.5829 10.0081 20.4853 9.77354C20.3876 9.51943 20.4853 2.54115 20.4853 1.99383C20.4853 1.97428 20.4658 1.95474 20.4462 1.95474H16.8914C16.8719 1.95474 16.8523 1.93519 16.8719 1.8961C17.0281 1.62244 17.7508 0.410522 18.161 0.410522Z" fill="#9A6C57"/>
<path d="M41.1697 0.508332C40.8962 0.508332 36.6187 0.508332 36.6187 0.508332L36.0914 1.0361L35.5445 0.469238H34.7241V9.77361C34.7241 9.77361 34.9194 10.2818 35.232 10.2818C35.5249 10.2818 41.1892 10.2818 41.1892 10.2818C41.1892 10.2818 42.6346 9.12856 42.6346 8.83536C42.6346 8.54215 42.6346 1.93526 42.6346 1.93526C42.6346 1.93526 41.4431 0.508332 41.1697 0.508332ZM41.0525 7.97529C41.0525 8.15121 40.7009 8.40532 40.7009 8.40532H36.6187L36.2281 8.75717L36.3843 8.36623V2.11119C36.3843 2.11119 40.4665 2.09164 40.6619 2.11119C40.8377 2.13073 41.0525 2.50213 41.0525 2.50213C41.0525 2.50213 41.0525 7.79936 41.0525 7.97529Z" fill="#9A6C57"/>
</g>
<defs>
<filter id="filter0_d" x="0" y="0" width="104" height="71" filterUnits="userSpaceOnUse" color-interpolation-filters="sRGB">
<feFlood flood-opacity="0" result="BackgroundImageFix"/>
<feColorMatrix in="SourceAlpha" type="matrix" values="0 0 0 0 0 0 0 0 0 0 0 0 0 0 0 0 0 0 127 0" result="hardAlpha"/>
<feOffset dy="4"/>
<feGaussianBlur stdDeviation="2"/>
<feComposite in2="hardAlpha" operator="out"/>
<feColorMatrix type="matrix" values="0 0 0 0 0 0 0 0 0 0 0 0 0 0 0 0 0 0 0.25 0"/>
<feBlend mode="normal" in2="BackgroundImageFix" result="effect1_dropShadow"/>
<feBlend mode="normal" in="SourceGraphic" in2="effect1_dropShadow" result="shape"/>
</filter>
<clipPath id="clip0">
<rect width="96" height="63" fill="white" transform="translate(4)"/>
</clipPath>
</defs>
</svg>
