<svg width="49" height="49" viewBox="0 0 49 49" fill="none" xmlns="http://www.w3.org/2000/svg">
<path d="M26.3669 44.6892C37.1894 44.6892 45.9628 35.9017 45.9628 25.0619C45.9628 14.222 37.1894 5.43457 26.3669 5.43457C15.5444 5.43457 6.771 14.222 6.771 25.0619C6.771 35.9017 15.5444 44.6892 26.3669 44.6892Z" fill="#E0D2C7"/>
<path d="M48.1871 21.8725C47.657 17.0774 45.834 12.8292 42.7211 9.15693C39.1891 4.99008 34.7256 2.34524 29.3847 1.22991C28.2114 0.984965 26.9989 0.927936 25.8051 0.781157C25.623 0.758719 25.4429 0.721323 25.2618 0.691406C24.8287 0.691406 24.3947 0.691406 23.9616 0.691406C23.3185 0.757784 22.6754 0.822292 22.0322 0.89054C17.6564 1.35799 13.71 2.92862 10.2265 5.61179C5.54645 9.21676 2.58943 13.9371 1.3704 19.7222C1.12585 20.8815 1.07078 22.0801 0.925171 23.2599C0.900902 23.4572 0.863566 23.6535 0.832764 23.8498C0.832764 24.2836 0.832764 24.7183 0.832764 25.1521C0.899969 25.8112 0.964374 26.4713 1.03625 27.1294C1.51135 31.4936 3.07667 35.4295 5.7462 38.9045C9.34728 43.5912 14.061 46.552 19.8387 47.773C20.9962 48.0179 22.1928 48.0731 23.3717 48.2189C23.5696 48.2432 23.7656 48.2806 23.9616 48.3115C24.3947 48.3115 24.8287 48.3115 25.2618 48.3115C25.9208 48.2442 26.5798 48.1806 27.2378 48.1077C32.0103 47.5795 36.2405 45.7639 39.9013 42.6637C44.082 39.1233 46.7348 34.6442 47.8539 29.2788C48.0957 28.1195 48.1535 26.921 48.2982 25.7411C48.3225 25.5439 48.3598 25.3475 48.3906 25.1512C48.3906 24.7174 48.3906 24.2827 48.3906 23.8489C48.3234 23.1907 48.26 22.5307 48.1871 21.8725ZM43.2793 27.0332C42.4766 27.0369 41.6739 27.0341 40.8403 27.0341C39.8509 32.2929 37.1114 36.3083 32.4462 38.9092C29.1149 40.7668 25.5213 41.3166 21.7709 40.6668C13.9518 39.3131 7.75489 32.2761 8.24959 23.5151C8.67522 15.9845 14.257 9.57483 21.9286 8.31365C26.3875 7.58069 30.5122 8.53989 34.187 11.195C37.86 13.8483 40.0199 17.4766 40.8301 21.9688C41.6916 21.9688 42.4953 21.9651 43.2989 21.9697C44.8054 21.9781 45.9488 23.0608 45.9628 24.4884C45.9768 25.9206 44.8129 27.0266 43.2793 27.0332Z" fill="#9A6C57"/>
<path d="M24.5772 25.0109C24.5473 23.6441 23.9406 22.8214 22.7141 22.7054C21.9786 22.6363 21.2132 22.7756 20.473 22.8962C20.0333 22.9672 19.8308 23.3374 19.9213 23.6675C20.0212 24.0321 20.3488 24.1667 20.8249 24.0807C21.2178 24.0096 21.6192 23.9255 22.0131 23.9414C22.7505 23.9713 23.0781 24.3368 23.0959 25.1053C22.9381 25.0848 22.8196 25.0586 22.701 25.0548C22.1046 25.0324 21.5007 24.9473 20.9145 25.0137C20.052 25.1128 19.547 25.7111 19.4584 26.5694C19.3837 27.2967 19.8037 28.0035 20.5159 28.2475C21.3018 28.5177 22.0672 28.4616 22.7608 27.9484C22.8541 27.8801 22.953 27.8193 23.0613 27.7474C23.2443 28.1811 23.5177 28.4373 23.9695 28.3373C24.4428 28.2335 24.5856 27.8754 24.5828 27.4267C24.5772 26.6217 24.594 25.8159 24.5772 25.0109ZM23.1603 26.3936C23.1724 26.8732 22.6889 27.3061 22.0467 27.3753C21.9692 27.3837 21.8927 27.3855 21.819 27.3837C21.7499 27.3818 21.6817 27.3743 21.6155 27.3631C21.1441 27.2827 20.7819 26.9873 20.7399 26.5984C20.6858 26.0963 21.1833 25.6317 21.8516 25.5597C22.4471 25.4952 22.9764 25.7663 23.122 26.1805C23.1519 26.244 23.1649 26.3151 23.1603 26.3936Z" fill="#9A6C57"/>
<path d="M31.7194 22.7301C30.3632 23.1499 29.608 24.4672 29.8479 26.0986C30.0047 27.1671 30.6301 27.9225 31.6597 28.246C32.6957 28.5714 33.7103 28.491 34.5887 27.7627C34.8463 27.5486 34.8948 27.2606 34.7063 26.9736C34.5075 26.6707 34.2144 26.6894 33.9241 26.81C33.7542 26.8801 33.6077 27.0054 33.4378 27.0755C32.4559 27.4841 31.5346 27.0587 31.3283 26.0434C31.5523 26.0322 31.7343 26.0172 31.9163 26.0163C32.7508 26.0125 33.5862 26.0256 34.4197 26.006C34.9891 25.9929 35.1898 25.7592 35.187 25.1936C35.1805 23.4098 33.4639 22.1907 31.7194 22.7301ZM31.3246 25.0617C31.3908 24.2615 31.8762 23.7987 32.5987 23.8211C33.2455 23.8417 33.7001 24.3409 33.7057 25.0617C32.8852 25.0617 32.1058 25.0617 31.3246 25.0617Z" fill="#9A6C57"/>
<path d="M17.6273 26.6869C17.4537 26.7869 17.2913 26.9122 17.1093 26.9917C16.5119 27.2553 15.8651 27.13 15.4432 26.6878C14.9746 26.1951 14.8682 25.3425 15.1949 24.6946C15.4824 24.1243 15.9958 23.8261 16.6407 23.9299C16.918 23.9748 17.183 24.1327 17.4379 24.2683C17.8206 24.4712 18.2219 24.4244 18.4338 24.1253C18.6644 23.8009 18.5953 23.3605 18.1837 23.1352C17.7739 22.9118 17.3165 22.7229 16.8592 22.65C15.096 22.3686 13.5838 23.597 13.512 25.3958C13.4401 27.1852 14.8169 28.4856 16.5297 28.3996C17.2176 28.4174 17.8607 28.1986 18.3834 27.6816C18.6373 27.4301 18.6494 27.1179 18.4469 26.8393C18.2378 26.5523 17.9428 26.5055 17.6273 26.6869Z" fill="#9A6C57"/>
<path d="M28.758 20.6465C27.4839 20.1622 26.3404 20.94 26.3143 22.3096C26.3096 22.5621 26.2779 22.7126 25.9969 22.8257C25.8131 22.9005 25.6068 23.1838 25.6058 23.3754C25.604 23.5633 25.8364 23.7653 25.9904 23.9382C26.0539 24.0093 26.1808 24.0233 26.3096 24.0757C26.3096 25.2041 26.3068 26.3325 26.3106 27.4609C26.3124 27.9873 26.6121 28.3482 27.0442 28.365C27.4839 28.3828 27.8255 28.0004 27.8302 27.4581C27.8386 26.6223 27.832 25.7856 27.833 24.9498C27.833 24.646 27.833 24.3421 27.833 24.0439C28.3678 23.9308 29.1033 24.2066 29.1211 23.4053C29.1397 22.5284 28.3398 22.8509 27.8722 22.7275C27.7742 22.0769 27.8759 21.9404 28.4929 21.8553C28.8224 21.8095 29.0903 21.6879 29.1425 21.3102C29.1864 20.9914 29.0501 20.7577 28.758 20.6465Z" fill="#9A6C57"/>
<path d="M24.6122 48.2244C37.7452 48.2244 48.3916 37.6187 48.3916 24.5359C48.3916 11.4531 37.7452 0.847412 24.6122 0.847412C11.4792 0.847412 0.832764 11.4531 0.832764 24.5359C0.832764 37.6187 11.4792 48.2244 24.6122 48.2244Z" stroke="#E0D2C7" stroke-miterlimit="10"/>
</svg>
