<svg width="48" height="48" viewBox="0 0 48 48" fill="none" xmlns="http://www.w3.org/2000/svg">
<path d="M48 24C48 10.7452 37.2548 0 24 0C10.7452 0 0 10.7452 0 24C0 37.2548 10.7452 48 24 48C37.2548 48 48 37.2548 48 24Z" fill="#9A6C57"/>
<path fill-rule="evenodd" clip-rule="evenodd" d="M35.738 14.14C36.3712 14.3119 36.9483 14.6465 37.4122 15.1105C37.876 15.5745 38.2104 16.1518 38.382 16.785C39.025 19.132 39 24.025 39 24.025C39 24.025 39 28.893 38.382 31.241C38.2103 31.8741 37.8759 32.4513 37.4121 32.9151C36.9482 33.3789 36.3711 33.7133 35.738 33.885C33.39 34.503 24 34.503 24 34.503C24 34.503 14.634 34.503 12.262 33.86C11.6289 33.6883 11.0518 33.3539 10.5879 32.8901C10.1241 32.4263 9.7897 31.8491 9.618 31.216C9 28.893 9 24 9 24C9 24 9 19.132 9.618 16.785C9.79268 16.1506 10.1276 15.5717 10.5907 15.1041C11.0537 14.6365 11.6293 14.2959 12.262 14.115C14.61 13.499 24 13.499 24 13.499C24 13.499 33.39 13.499 35.738 14.142V14.14ZM28.818 24L21.01 28.498V19.503L28.819 24H28.818Z" fill="#E0D2C7"/>
</svg>
